<?xml version="1.0" encoding="UTF-8"?>
<svg width="351px" height="110px" viewBox="0 0 351 110" version="1.1" xmlns="http://www.w3.org/2000/svg" xmlns:xlink="http://www.w3.org/1999/xlink">
    <title>bg-06</title>
    <defs>
        <rect id="path-1" x="0" y="0" width="351" height="110" rx="5"></rect>
        <linearGradient x1="50%" y1="0%" x2="50%" y2="100%" id="linearGradient-3">
            <stop stop-color="#D9E8FF" stop-opacity="0.7" offset="0%"></stop>
            <stop stop-color="#F3FAFF" stop-opacity="0.4" offset="100%"></stop>
        </linearGradient>
        <linearGradient x1="50%" y1="0%" x2="50%" y2="100%" id="linearGradient-4">
            <stop stop-color="#4F8BFC" offset="0%"></stop>
            <stop stop-color="#2469F6" offset="100%"></stop>
        </linearGradient>
        <rect id="path-5" x="0" y="0" width="42.9572896" height="52.4841002" rx="3"></rect>
        <filter x="-2.3%" y="-1.9%" width="104.7%" height="103.8%" filterUnits="objectBoundingBox" id="filter-6">
            <feGaussianBlur stdDeviation="0.5" in="SourceAlpha" result="shadowBlurInner1"></feGaussianBlur>
            <feOffset dx="1" dy="1" in="shadowBlurInner1" result="shadowOffsetInner1"></feOffset>
            <feComposite in="shadowOffsetInner1" in2="SourceAlpha" operator="arithmetic" k2="-1" k3="1" result="shadowInnerInner1"></feComposite>
            <feColorMatrix values="0 0 0 0 1   0 0 0 0 1   0 0 0 0 1  0 0 0 0.7 0" type="matrix" in="shadowInnerInner1"></feColorMatrix>
        </filter>
        <linearGradient x1="50%" y1="0%" x2="50%" y2="170.751744%" id="linearGradient-7">
            <stop stop-color="#4F8BFC" offset="0%"></stop>
            <stop stop-color="#2469F6" offset="100%"></stop>
        </linearGradient>
        <ellipse id="path-8" cx="37.1490359" cy="43.2573093" rx="7.21196104" ry="7.15555556"></ellipse>
        <filter x="-6.9%" y="-7.0%" width="113.9%" height="114.0%" filterUnits="objectBoundingBox" id="filter-9">
            <feGaussianBlur stdDeviation="0.5" in="SourceAlpha" result="shadowBlurInner1"></feGaussianBlur>
            <feOffset dx="1" dy="1" in="shadowBlurInner1" result="shadowOffsetInner1"></feOffset>
            <feComposite in="shadowOffsetInner1" in2="SourceAlpha" operator="arithmetic" k2="-1" k3="1" result="shadowInnerInner1"></feComposite>
            <feColorMatrix values="0 0 0 0 0.12231675   0 0 0 0 0.447214328   0 0 0 0 0.89960336  0 0 0 0.648957793 0" type="matrix" in="shadowInnerInner1"></feColorMatrix>
        </filter>
        <linearGradient x1="50%" y1="0%" x2="50%" y2="170.751744%" id="linearGradient-10">
            <stop stop-color="#4F8BFC" offset="0%"></stop>
            <stop stop-color="#2469F6" offset="100%"></stop>
        </linearGradient>
        <ellipse id="path-11" cx="37.1490359" cy="43.2573093" rx="5.3305799" ry="5.28888889"></ellipse>
        <filter x="-9.4%" y="-9.5%" width="118.8%" height="118.9%" filterUnits="objectBoundingBox" id="filter-12">
            <feGaussianBlur stdDeviation="0.5" in="SourceAlpha" result="shadowBlurInner1"></feGaussianBlur>
            <feOffset dx="1" dy="1" in="shadowBlurInner1" result="shadowOffsetInner1"></feOffset>
            <feComposite in="shadowOffsetInner1" in2="SourceAlpha" operator="arithmetic" k2="-1" k3="1" result="shadowInnerInner1"></feComposite>
            <feColorMatrix values="0 0 0 0 0.889615091   0 0 0 0 0.935709888   0 0 0 0 1  0 0 0 0.408202058 0" type="matrix" in="shadowInnerInner1"></feColorMatrix>
        </filter>
        <linearGradient x1="50%" y1="0%" x2="50%" y2="100%" id="linearGradient-13">
            <stop stop-color="#EDF4FF" offset="0%"></stop>
            <stop stop-color="#F1F8FF" stop-opacity="0.615405722" offset="31.5972602%"></stop>
            <stop stop-color="#F3FAFF" stop-opacity="0.4" offset="100%"></stop>
        </linearGradient>
        <filter x="-49.0%" y="-49.0%" width="198.0%" height="198.0%" filterUnits="objectBoundingBox" id="filter-14">
            <feGaussianBlur stdDeviation="16" in="SourceGraphic"></feGaussianBlur>
        </filter>
        <linearGradient x1="50%" y1="0%" x2="50%" y2="100%" id="linearGradient-15">
            <stop stop-color="#FFFFFF" offset="0%"></stop>
            <stop stop-color="#FFFFFF" offset="100%"></stop>
        </linearGradient>
    </defs>
    <g id="页面-2" stroke="none" stroke-width="1" fill="none" fill-rule="evenodd">
        <g id="7-1-幼儿入托" transform="translate(-12, -388)">
            <g id="编组-2" transform="translate(12, 388)">
                <mask id="mask-2" fill="white">
                    <use xlink:href="#path-1"></use>
                </mask>
                <use id="矩形" fill="#FFFFFF" xlink:href="#path-1"></use>
                <circle id="椭圆形" fill="url(#linearGradient-3)" mask="url(#mask-2)" cx="48" cy="102" r="60"></circle>
                <g id="编组-21" mask="url(#mask-2)">
                    <g transform="translate(35, 30)">
                        <path d="M7.45402933,4.61781021 L44.4097437,4.59683537 C46.0665977,4.595895 47.4105055,5.93827821 47.4114459,7.59513219 C47.4114465,7.5961865 47.4114465,7.59724081 47.411446,7.59829512 L47.3919882,47.5739123 C47.3911824,49.2295312 46.0493102,50.5715119 44.3936913,50.5724515 L7.43797694,50.5934264 C5.78112296,50.5943668 4.4372151,49.2519835 4.43627472,47.5951296 C4.43627413,47.5940753 4.43627408,47.5930209 4.4362746,47.5919666 L4.45573239,7.6163495 C4.45653824,5.96073051 5.79841041,4.61874988 7.45402933,4.61781021 Z" id="矩形" fill-opacity="0.9" fill="url(#linearGradient-4)" fill-rule="evenodd" transform="translate(25.9239, 27.5951) rotate(4) translate(-25.9239, -27.5951)"></path>
                        <g id="矩形" fill="none">
                            <use fill-opacity="0.4" fill="#F3FAFF" fill-rule="evenodd" xlink:href="#path-5"></use>
                            <use fill="black" fill-opacity="1" filter="url(#filter-6)" xlink:href="#path-5"></use>
                        </g>
                        <g id="icon/jilu/口腔" stroke-width="1" fill="none" fill-rule="evenodd" transform="translate(10.2865, 8.6598)">
                            <g id="编组-22">
                                <path d="M12.2093024,0.0557947743 C16.794855,0.0566515898 20.7821915,3.15966415 21.8530123,7.56069261 L21.8636648,7.60679448 L21.9193851,7.60841208 C23.2644174,7.68397674 24.3379515,8.74360828 24.4145076,10.0712221 L24.4186047,10.2200421 C24.4186047,10.9135475 24.1394962,11.5786487 23.6426799,12.0690311 C23.1458636,12.5594134 22.4720362,12.8349074 21.7694319,12.8349074 L21.6522554,12.8308634 L21.5604807,13.1018129 C20.1898575,16.9281666 16.56964,19.5231533 12.4592243,19.6256308 L12.2093024,19.628866 C7.91435938,19.6284457 4.10752934,16.8999104 2.77782125,12.8688772 L2.76471059,12.8308634 L2.64917289,12.8349074 C1.24427109,12.834986 0.0836199499,11.752538 0.00409720821,10.3680534 L0,10.2200421 C0,9.52639661 0.278795271,8.8610876 0.775635099,8.3705303 C1.27247493,7.87997299 1.94642659,7.60436803 2.64917289,7.60436806 L2.55494002,7.60679448 L2.62622924,7.32533048 C3.75929258,3.12852753 7.55811404,0.170185807 11.9569222,0.0590299927 L12.2093024,0.0557947743 Z M6.50042931,11.8061079 C6.50042931,14.4363405 9.08732644,16.499601 12.2093024,16.499601 C15.3312783,16.499601 17.9181755,14.4363405 17.9181755,11.8061079 C17.9181755,8.64529958 6.50042931,8.64529958 6.50042931,11.8061079 Z M12.2093024,12.9675513 C14.1702063,12.9675513 15.759833,13.5950952 15.759833,14.3692097 C15.759833,15.1433242 14.1702063,15.7708681 12.2093024,15.7708681 C10.2483985,15.7708681 8.65877174,15.1433242 8.65877174,14.3692097 C8.65877174,13.5950952 10.2483985,12.9675513 12.2093024,12.9675513 Z M7.75741385,5.95764191 C7.0785872,5.95764191 6.52828946,6.50081313 6.52828946,7.1708488 C6.52828946,7.84088446 7.0785872,8.38405569 7.75741385,8.38405569 C8.43624051,8.38405569 8.98653824,7.84088446 8.98653824,7.1708488 C8.98653824,6.50081313 8.43624051,5.95764191 7.75741385,5.95764191 Z M16.0466287,6.12018077 C15.6663363,6.33689932 15.4320665,6.73741171 15.4320665,7.1708488 C15.4320665,7.60428589 15.6663363,8.00479828 16.0466287,8.22151683 C16.4269211,8.43823538 16.8954607,8.43823538 17.2757531,8.22151683 C17.6560456,8.00479828 17.8903153,7.60428589 17.8903153,7.1708488 C17.8903153,6.73741171 17.6560456,6.33689932 17.2757531,6.12018077 C16.8954607,5.90346222 16.4269211,5.90346222 16.0466287,6.12018077 Z" id="形状结合" fill="#FFFFFF"></path>
                                <path d="M15.9597706,0.0371922686 C16.1672045,-0.0271394458 16.3920376,-0.00745718463 16.584763,0.0919051393 C16.7774884,0.191267463 16.9223027,0.362162164 16.9873186,0.566959278 C17.8853988,3.38887851 16.3940612,5.06795685 13.0369128,5.23052657 C12.5848143,5.25241441 12.2003396,4.90840596 12.1781646,4.46216221 C12.1559896,4.01591846 12.5045115,3.63642283 12.95661,3.61453499 C15.3222648,3.49968474 15.970423,2.770143 15.4238724,1.05062443 C15.2886106,0.624729373 15.5284419,0.171186718 15.9597706,0.0371922686 L15.9597706,0.0371922686 Z" id="路径" fill="#72A1FB" style="mix-blend-mode: multiply;"></path>
                            </g>
                        </g>
                        <g id="icon/6/icon/食谱" stroke-width="1" fill="none" fill-rule="evenodd" transform="translate(5.8854, 35.7314)">
                            <g fill="#FFFFFF">
                                <rect id="矩形" x="0" y="0" width="31.2849162" height="2" rx="1"></rect>
                                <rect id="矩形备份" x="0" y="7.76237624" width="31.2849162" height="2" rx="1"></rect>
                            </g>
                        </g>
                        <polygon id="星形" fill-opacity="0.9" fill="url(#linearGradient-7)" fill-rule="evenodd" points="37.150838 52.2316959 32.2336766 55.0292756 30.7499042 49.6002931 25.2797602 48.1276858 28.0985506 43.2475248 25.2797602 38.3673638 30.7499042 36.8947564 32.2336766 31.4657739 37.150838 34.2633536 42.0679994 31.4657739 43.5517718 36.8947564 49.0219158 38.3673638 46.2031254 43.2475248 49.0219158 48.1276858 43.5517718 49.6002931 42.0679994 55.0292756"></polygon>
                        <g id="椭圆形" fill="none">
                            <use fill="#216FFF" fill-rule="evenodd" xlink:href="#path-8"></use>
                            <use fill="black" fill-opacity="1" filter="url(#filter-9)" xlink:href="#path-8"></use>
                        </g>
                        <g id="椭圆形" fill="none">
                            <use fill-opacity="0.9" fill="url(#linearGradient-10)" fill-rule="evenodd" xlink:href="#path-11"></use>
                            <use fill="black" fill-opacity="1" filter="url(#filter-12)" xlink:href="#path-11"></use>
                        </g>
                    </g>
                </g>
                <circle id="椭圆形备份" fill="url(#linearGradient-13)" filter="url(#filter-14)" mask="url(#mask-2)" cx="321" cy="37" r="49"></circle>
                <rect id="矩形" stroke="url(#linearGradient-15)" mask="url(#mask-2)" x="0.5" y="0.5" width="350" height="109" rx="5"></rect>
            </g>
        </g>
    </g>
</svg>