<?xml version="1.0" encoding="UTF-8"?>
<svg width="351px" height="110px" viewBox="0 0 351 110" version="1.1" xmlns="http://www.w3.org/2000/svg" xmlns:xlink="http://www.w3.org/1999/xlink">
    <title>bg-05</title>
    <defs>
        <rect id="path-1" x="0" y="0" width="351" height="110" rx="5"></rect>
        <linearGradient x1="50%" y1="0%" x2="50%" y2="100%" id="linearGradient-3">
            <stop stop-color="#D9E8FF" stop-opacity="0.7" offset="0%"></stop>
            <stop stop-color="#F3FAFF" stop-opacity="0.4" offset="100%"></stop>
        </linearGradient>
        <linearGradient x1="50%" y1="0%" x2="50%" y2="100%" id="linearGradient-4">
            <stop stop-color="#4F8BFC" offset="0%"></stop>
            <stop stop-color="#2469F6" offset="100%"></stop>
        </linearGradient>
        <path d="M6.98353447,0 L25.6574409,0 L25.6574409,0 L33.1891314,0 L47.0227755,13.5404431 L47.0227755,25.6344483 L47.0227755,48.5774685 C47.0227755,50.0639032 45.817782,51.2688967 44.3313472,51.2688967 L6.98353447,51.2688967 C5.49709971,51.2688967 4.29210626,50.0639032 4.29210626,48.5774685 L4.29210626,2.69142822 C4.29210626,1.20499346 5.49709971,2.04941047e-15 6.98353447,1.77635684e-15 Z" id="path-5"></path>
        <filter x="-2.3%" y="-2.0%" width="104.7%" height="103.9%" filterUnits="objectBoundingBox" id="filter-6">
            <feGaussianBlur stdDeviation="0.5" in="SourceAlpha" result="shadowBlurInner1"></feGaussianBlur>
            <feOffset dx="1" dy="1" in="shadowBlurInner1" result="shadowOffsetInner1"></feOffset>
            <feComposite in="shadowOffsetInner1" in2="SourceAlpha" operator="arithmetic" k2="-1" k3="1" result="shadowInnerInner1"></feComposite>
            <feColorMatrix values="0 0 0 0 1   0 0 0 0 1   0 0 0 0 1  0 0 0 0.7 0" type="matrix" in="shadowInnerInner1"></feColorMatrix>
        </filter>
        <path d="M29.5720471,15.3268035 L29.6166908,15.370042 C30.1105845,15.8483891 30.1231875,16.6365461 29.6448404,17.1304399 L29.6166908,17.1585894 L24.9553563,21.6731965 C24.7594487,21.8629373 24.517448,21.9767818 24.2662287,22.01473 L24.1400215,22.0273794 L24.0133022,22.0273794 C23.7178229,22.0126218 23.4265262,21.8945608 23.1979674,21.6731965 L20.3833092,18.9471369 C19.8894155,18.4687897 19.8768125,17.6806327 20.3551596,17.186739 L20.3833092,17.1585894 L20.4279529,17.115351 C20.9177218,16.6409988 21.6955729,16.6409988 22.1853418,17.115351 L24.076,18.947 L27.8146582,15.3268035 C28.3044271,14.8524514 29.0822782,14.8524514 29.5720471,15.3268035 Z" id="path-7"></path>
        <filter x="-15.0%" y="-21.8%" width="129.9%" height="143.7%" filterUnits="objectBoundingBox" id="filter-8">
            <feGaussianBlur stdDeviation="1" in="SourceAlpha" result="shadowBlurInner1"></feGaussianBlur>
            <feOffset dx="1" dy="1" in="shadowBlurInner1" result="shadowOffsetInner1"></feOffset>
            <feComposite in="shadowOffsetInner1" in2="SourceAlpha" operator="arithmetic" k2="-1" k3="1" result="shadowInnerInner1"></feComposite>
            <feColorMatrix values="0 0 0 0 1   0 0 0 0 1   0 0 0 0 1  0 0 0 0.398328341 0" type="matrix" in="shadowInnerInner1"></feColorMatrix>
        </filter>
        <path d="M33.1891314,4.23483471e-12 L47.0227755,13.5404431 L36.7777023,13.5404431 C34.7957893,13.5404431 33.1891314,11.9337852 33.1891314,9.95187218 L33.1891314,4.23483471e-12 L33.1891314,4.23483471e-12 Z" id="path-9"></path>
        <filter x="-32.5%" y="-33.2%" width="165.1%" height="166.5%" filterUnits="objectBoundingBox" id="filter-10">
            <feOffset dx="0" dy="0" in="SourceAlpha" result="shadowOffsetOuter1"></feOffset>
            <feGaussianBlur stdDeviation="1.5" in="shadowOffsetOuter1" result="shadowBlurOuter1"></feGaussianBlur>
            <feColorMatrix values="0 0 0 0 0.156862745   0 0 0 0 0.48627451   0 0 0 0 1  0 0 0 0.5 0" type="matrix" in="shadowBlurOuter1"></feColorMatrix>
        </filter>
        <filter x="-25.3%" y="-25.8%" width="150.6%" height="151.7%" filterUnits="objectBoundingBox" id="filter-11">
            <feGaussianBlur stdDeviation="0.5" in="SourceAlpha" result="shadowBlurInner1"></feGaussianBlur>
            <feOffset dx="0" dy="0" in="shadowBlurInner1" result="shadowOffsetInner1"></feOffset>
            <feComposite in="shadowOffsetInner1" in2="SourceAlpha" operator="arithmetic" k2="-1" k3="1" result="shadowInnerInner1"></feComposite>
            <feColorMatrix values="0 0 0 0 0.805433022   0 0 0 0 0.886680771   0 0 0 0 1  0 0 0 1 0" type="matrix" in="shadowInnerInner1"></feColorMatrix>
        </filter>
        <linearGradient x1="50%" y1="0%" x2="50%" y2="100%" id="linearGradient-12">
            <stop stop-color="#EDF4FF" offset="0%"></stop>
            <stop stop-color="#F1F8FF" stop-opacity="0.615405722" offset="31.5972602%"></stop>
            <stop stop-color="#F3FAFF" stop-opacity="0.4" offset="100%"></stop>
        </linearGradient>
        <filter x="-49.0%" y="-49.0%" width="198.0%" height="198.0%" filterUnits="objectBoundingBox" id="filter-13">
            <feGaussianBlur stdDeviation="16" in="SourceGraphic"></feGaussianBlur>
        </filter>
        <linearGradient x1="50%" y1="0%" x2="50%" y2="100%" id="linearGradient-14">
            <stop stop-color="#FFFFFF" offset="0%"></stop>
            <stop stop-color="#FFFFFF" offset="100%"></stop>
        </linearGradient>
    </defs>
    <g id="页面-2" stroke="none" stroke-width="1" fill="none" fill-rule="evenodd">
        <g id="7-1-幼儿入托" transform="translate(-12, -266)">
            <g id="编组-4" transform="translate(12, 266)">
                <mask id="mask-2" fill="white">
                    <use xlink:href="#path-1"></use>
                </mask>
                <use id="矩形" fill="#FFFFFF" xlink:href="#path-1"></use>
                <circle id="椭圆形" fill="url(#linearGradient-3)" mask="url(#mask-2)" cx="48" cy="102" r="60"></circle>
                <g id="编组-21备份" mask="url(#mask-2)">
                    <g transform="translate(30, 29)">
                        <path d="M11.9142835,4.68563766 L30.5809108,4.70505417 L30.5809108,4.70505417 L38.1120476,4.71288784 L51.9592864,18.2687301 L51.9723373,30.3636381 L51.9970897,53.3028636 C51.9986936,54.7892975 50.7950011,55.9955905 49.3085672,55.9971944 C49.306666,55.9971965 49.3047647,55.9971965 49.3028635,55.9971945 L11.9582015,55.9583496 C10.4739945,55.9568058 9.27117589,54.754034 9.26957437,53.269827 L9.22005735,7.37996858 C9.21845342,5.89353469 10.4221459,4.6872417 11.9085798,4.68563777 C11.9104811,4.68563572 11.9123823,4.68563569 11.9142835,4.68563766 Z" id="矩形" stroke="none" fill-opacity="0.9" fill="url(#linearGradient-4)" fill-rule="evenodd"></path>
                        <g id="矩形" stroke="none" fill="none">
                            <use fill-opacity="0.4" fill="#F3FAFF" fill-rule="evenodd" xlink:href="#path-5"></use>
                            <use fill="black" fill-opacity="1" filter="url(#filter-6)" xlink:href="#path-5"></use>
                        </g>
                        <path d="M25,8.85 C27.5267027,8.85 29.8142027,9.87414863 31.470027,11.529973 C33.1258514,13.1857973 34.15,15.4732973 34.15,18 C34.15,20.5267027 33.1258514,22.8142027 31.470027,24.470027 C29.8142027,26.1258514 27.5267027,27.15 25,27.15 C22.4732973,27.15 20.1857973,26.1258514 18.529973,24.470027 C16.8741486,22.8142027 15.85,20.5267027 15.85,18 C15.85,15.4732973 16.8741486,13.1857973 18.529973,11.529973 C20.1857973,9.87414863 22.4732973,8.85 25,8.85 Z" id="路径" stroke="#FFFFFF" stroke-width="1.7" fill="none"></path>
                        <g id="形状结合" stroke="none" fill="none">
                            <use fill="#FFFFFF" fill-rule="evenodd" xlink:href="#path-7"></use>
                            <use fill="black" fill-opacity="1" filter="url(#filter-8)" xlink:href="#path-7"></use>
                        </g>
                        <g id="矩形" stroke="none" fill="none">
                            <use fill="black" fill-opacity="1" filter="url(#filter-10)" xlink:href="#path-9"></use>
                            <use fill="#CBE1FF" fill-rule="evenodd" xlink:href="#path-9"></use>
                            <use fill="black" fill-opacity="1" filter="url(#filter-11)" xlink:href="#path-9"></use>
                        </g>
                        <rect id="矩形" stroke="none" fill="#72A1FB" fill-rule="evenodd" style="mix-blend-mode: multiply;" x="0" y="13.1726269" width="9.12282842" height="4.44421475" rx="1.79428548"></rect>
                        <rect id="矩形备份" stroke="none" fill="#72A1FB" fill-rule="evenodd" style="mix-blend-mode: multiply;" x="5.45696821e-12" y="20.2310856" width="9.12282842" height="4.44421475" rx="1.79428548"></rect>
                        <rect id="矩形备份-25" stroke="none" fill="#FFFFFF" fill-rule="evenodd" x="11.2641182" y="34.5708303" width="28.7100777" height="2.21589037" rx="0.897142734"></rect>
                        <rect id="矩形备份-26" stroke="none" fill="#FFFFFF" fill-rule="evenodd" x="11.2641182" y="41.2472072" width="28.7100777" height="2.21589037" rx="0.897142734"></rect>
                    </g>
                </g>
                <circle id="椭圆形备份" fill="url(#linearGradient-12)" filter="url(#filter-13)" mask="url(#mask-2)" cx="321" cy="37" r="49"></circle>
                <rect id="矩形" stroke="url(#linearGradient-14)" mask="url(#mask-2)" x="0.5" y="0.5" width="350" height="109" rx="5"></rect>
            </g>
        </g>
    </g>
</svg>