<?xml version="1.0" encoding="UTF-8"?>
<svg width="351px" height="110px" viewBox="0 0 351 110" version="1.1" xmlns="http://www.w3.org/2000/svg" xmlns:xlink="http://www.w3.org/1999/xlink">
    <title>bg-03</title>
    <defs>
        <rect id="path-1" x="0" y="0" width="351" height="110" rx="5"></rect>
        <linearGradient x1="50%" y1="0%" x2="50%" y2="100%" id="linearGradient-3">
            <stop stop-color="#D9E8FF" stop-opacity="0.7" offset="0%"></stop>
            <stop stop-color="#F3FAFF" stop-opacity="0.4" offset="100%"></stop>
        </linearGradient>
        <linearGradient x1="50%" y1="0%" x2="50%" y2="100%" id="linearGradient-4">
            <stop stop-color="#4F8BFC" offset="0%"></stop>
            <stop stop-color="#2469F6" offset="100%"></stop>
        </linearGradient>
        <linearGradient x1="50%" y1="0%" x2="50%" y2="100%" id="linearGradient-5">
            <stop stop-color="#4F8BFC" offset="0%"></stop>
            <stop stop-color="#2469F6" offset="100%"></stop>
        </linearGradient>
        <path d="M26.4873775,10.4078022 L45.1380125,21.0554391 C46.0733222,21.5894068 46.6506351,22.5837637 46.6506351,23.6607621 L46.6506351,44.8978971 C46.6506351,45.9748955 46.0733222,46.9692524 45.1380125,47.5032202 L26.4873775,58.1508571 C25.5656111,58.677093 24.4343889,58.677093 23.5126225,58.1508571 L4.86198745,47.5032202 C3.92667782,46.9692524 3.34936491,45.9748955 3.34936491,44.8978971 L3.34936491,23.6607621 C3.34936491,22.5837637 3.92667782,21.5894068 4.86198745,21.0554391 L23.5126225,10.4078022 C24.4343889,9.88156625 25.5656111,9.88156625 26.4873775,10.4078022 Z" id="path-6"></path>
        <filter x="3.7%" y="-2.1%" width="92.6%" height="104.2%" filterUnits="objectBoundingBox" id="filter-7">
            <feGaussianBlur stdDeviation="1" in="SourceAlpha" result="shadowBlurInner1"></feGaussianBlur>
            <feOffset dx="1" dy="1" in="shadowBlurInner1" result="shadowOffsetInner1"></feOffset>
            <feComposite in="shadowOffsetInner1" in2="SourceAlpha" operator="arithmetic" k2="-1" k3="1" result="shadowInnerInner1"></feComposite>
            <feColorMatrix values="0 0 0 0 1   0 0 0 0 1   0 0 0 0 1  0 0 0 0.7 0" type="matrix" in="shadowInnerInner1"></feColorMatrix>
        </filter>
        <path d="M24.5229911,41.5365164 L19.6716133,43.4056242 C18.9878272,43.6690689 18.2199449,43.3283149 17.9565001,42.6445288 C17.8885451,42.4681475 17.8590607,42.2792825 17.8700214,42.0905814 L18.1665252,36.9859305 C18.1859678,36.6512037 18.0779621,36.3215275 17.8642256,36.0631929 L14.5991618,32.1168415 C14.1320398,31.55225 14.2110545,30.7158809 14.775646,30.2487589 C14.9252107,30.1250147 15.1001064,30.035596 15.2879952,29.9868107 L20.2967602,28.6862878 C20.6175071,28.6030061 20.8954795,28.4027133 21.0759934,28.1248119 L23.8873168,23.7967761 C24.2864837,23.1822581 25.1082377,23.0076816 25.7227557,23.4068485 C25.878605,23.5080822 26.0114496,23.6409267 26.1126832,23.7967761 L28.9240066,28.1248119 C29.1045205,28.4027133 29.3824929,28.6030061 29.7032398,28.6862878 L34.7120048,29.9868107 C35.4212663,30.1709701 35.8469457,30.8952308 35.6627864,31.6044923 C35.6140012,31.7923812 35.5245825,31.9672769 35.4008382,32.1168415 L32.1357744,36.0631929 C31.9220379,36.3215275 31.8140322,36.6512037 31.8334748,36.9859305 L32.1299786,42.0905814 C32.1724705,42.8221285 31.613881,43.449611 30.882334,43.4921029 C30.6936329,43.5030636 30.5047679,43.4735792 30.3283867,43.4056242 L25.4770089,41.5365164 C25.1700017,41.4182346 24.8299983,41.4182346 24.5229911,41.5365164 Z" id="path-8"></path>
        <filter x="2.5%" y="0.4%" width="94.9%" height="91.4%" filterUnits="objectBoundingBox" id="filter-9">
            <feGaussianBlur stdDeviation="0.5" in="SourceAlpha" result="shadowBlurInner1"></feGaussianBlur>
            <feOffset dx="1" dy="1" in="shadowBlurInner1" result="shadowOffsetInner1"></feOffset>
            <feComposite in="shadowOffsetInner1" in2="SourceAlpha" operator="arithmetic" k2="-1" k3="1" result="shadowInnerInner1"></feComposite>
            <feColorMatrix values="0 0 0 0 0.12231675   0 0 0 0 0.447214328   0 0 0 0 0.89960336  0 0 0 0.9 0" type="matrix" in="shadowInnerInner1"></feColorMatrix>
        </filter>
        <linearGradient x1="50%" y1="0%" x2="50%" y2="100%" id="linearGradient-10">
            <stop stop-color="#EDF4FF" offset="0%"></stop>
            <stop stop-color="#F1F8FF" stop-opacity="0.615405722" offset="31.5972602%"></stop>
            <stop stop-color="#F3FAFF" stop-opacity="0.4" offset="100%"></stop>
        </linearGradient>
        <filter x="-49.0%" y="-49.0%" width="198.0%" height="198.0%" filterUnits="objectBoundingBox" id="filter-11">
            <feGaussianBlur stdDeviation="16" in="SourceGraphic"></feGaussianBlur>
        </filter>
        <linearGradient x1="50%" y1="0%" x2="50%" y2="100%" id="linearGradient-12">
            <stop stop-color="#FFFFFF" offset="0%"></stop>
            <stop stop-color="#FFFFFF" offset="100%"></stop>
        </linearGradient>
    </defs>
    <g id="页面-2" stroke="none" stroke-width="1" fill="none" fill-rule="evenodd">
        <g id="6-1-质量评估" transform="translate(-12, -388)">
            <g id="编组-2" transform="translate(12, 388)">
                <mask id="mask-2" fill="white">
                    <use xlink:href="#path-1"></use>
                </mask>
                <use id="矩形" fill="#FFFFFF" xlink:href="#path-1"></use>
                <circle id="椭圆形" fill="url(#linearGradient-3)" mask="url(#mask-2)" cx="48" cy="102" r="60"></circle>
                <g id="编组-25" mask="url(#mask-2)">
                    <g transform="translate(32, 26)">
                        <path d="M29.9873775,15.8575228 L44.7408982,24.2802994 C45.6762079,24.8142671 46.2535208,25.808624 46.2535208,26.8856225 L46.2535208,43.6730367 C46.2535208,44.7500352 45.6762079,45.7443921 44.7408982,46.2783598 L29.9873775,54.7011364 C29.0656111,55.2273723 27.9343889,55.2273723 27.0126225,54.7011364 L12.2591018,46.2783598 C11.3237921,45.7443921 10.7464792,44.7500352 10.7464792,43.6730367 L10.7464792,26.8856225 C10.7464792,25.808624 11.3237921,24.8142671 12.2591018,24.2802994 L27.0126225,15.8575228 C27.9343889,15.3312869 29.0656111,15.3312869 29.9873775,15.8575228 Z" id="多边形" stroke="none" fill-opacity="0.6" fill="url(#linearGradient-4)" fill-rule="evenodd"></path>
                        <path d="M3.04947917,0 L47.2838542,0 C48.3884237,-2.02906125e-16 49.2838542,0.8954305 49.2838542,2 L49.2838542,15.8117991 C49.2838542,16.4946264 48.9354883,17.1302671 48.359916,17.4976493 L25.1666667,32.301676 L25.1666667,32.301676 L1.9734173,17.4976493 C1.39784502,17.1302671 1.04947917,16.4946264 1.04947917,15.8117991 L1.04947917,2 C1.04947917,0.8954305 1.94490967,2.02906125e-16 3.04947917,0 Z" id="矩形" stroke="none" fill-opacity="0.7" fill="url(#linearGradient-5)" fill-rule="evenodd"></path>
                        <rect id="矩形" stroke="none" fill="#72A1FB" fill-rule="evenodd" style="mix-blend-mode: multiply;" x="16.3619792" y="0" width="17.609375" height="23.7215433"></rect>
                        <g id="多边形" stroke="none" fill="none">
                            <use fill-opacity="0.300402234" fill="#F3FAFF" fill-rule="evenodd" xlink:href="#path-6"></use>
                            <use fill="black" fill-opacity="1" filter="url(#filter-7)" xlink:href="#path-6"></use>
                        </g>
                        <path d="M23.810098,14.884174 C24.5475111,14.4631853 25.4524889,14.4631853 26.189902,14.884174 L41.3764354,23.5541573 C41.7505593,23.7677444 42.0530838,24.0734093 42.2620773,24.4333773 C42.4710709,24.7933453 42.5865335,25.2076164 42.5865335,25.6384158 L42.5865335,42.9202434 C42.5865335,43.3510428 42.4710709,43.7653139 42.2620773,44.1252819 C42.0530838,44.4852499 41.7505593,44.7909148 41.3764354,45.0045019 L26.189902,53.6744852 C25.4524889,54.0954739 24.5475111,54.0954739 23.810098,53.6744852 L8.62356456,45.0045019 C8.24944071,44.7909148 7.9469162,44.4852499 7.73792265,44.1252819 C7.5289291,43.7653139 7.41346652,43.3510428 7.41346652,42.9202434 L7.41346652,25.6384158 C7.41346652,25.2076164 7.5289291,24.7933453 7.73792265,24.4333773 C7.9469162,24.0734093 8.24944071,23.7677444 8.62356456,23.5541573 Z" id="多边形" stroke-opacity="0.836360905" stroke="#FFFFFF" stroke-width="1.2" fill="none"></path>
                        <g id="星形" stroke="none" fill="none">
                            <use fill="#4385FF" fill-rule="evenodd" xlink:href="#path-8"></use>
                            <use fill="black" fill-opacity="1" filter="url(#filter-9)" xlink:href="#path-8"></use>
                        </g>
                    </g>
                </g>
                <circle id="椭圆形备份" fill="url(#linearGradient-10)" filter="url(#filter-11)" mask="url(#mask-2)" cx="321" cy="37" r="49"></circle>
                <rect id="矩形" stroke="url(#linearGradient-12)" mask="url(#mask-2)" x="0.5" y="0.5" width="350" height="109" rx="5"></rect>
            </g>
        </g>
    </g>
</svg>