<?xml version="1.0" encoding="UTF-8"?>
<svg width="28px" height="28px" viewBox="0 0 28 28" version="1.1" xmlns="http://www.w3.org/2000/svg" xmlns:xlink="http://www.w3.org/1999/xlink">
    <title>矩形</title>
    <g id="页面-2" stroke="none" stroke-width="1" fill="none" fill-rule="evenodd">
        <g id="9-1-2-填写-正常" transform="translate(-315, -408)" fill-rule="nonzero">
            <g id="相机" transform="translate(315, 408)">
                <rect id="矩形" fill="#000000" opacity="0" x="3" y="3" width="22" height="22"></rect>
                <path d="M22.9697266,7.82324219 L19.1347656,7.82324219 C18.9564453,7.82324219 18.8125,7.67929687 18.8125,7.50097656 L18.8125,7.07128906 C18.8125,5.95625 17.9080078,5.05175781 16.7929688,5.05175781 L11.2070313,5.05175781 C10.0919922,5.05175781 9.1875,5.95625 9.1875,7.07128906 L9.1875,7.50097656 C9.1875,7.67929687 9.04355469,7.82324219 8.86523438,7.82324219 L5.03027344,7.82324219 C3.91523438,7.82324219 3.01074219,8.72773438 3.01074219,9.84277344 L3.01074219,20.9287109 C3.01074219,22.04375 3.91523438,22.9482422 5.03027344,22.9482422 L22.9697266,22.9482422 C24.0847656,22.9482422 24.9892578,22.04375 24.9892578,20.9287109 L24.9892578,9.84277344 C24.9892578,8.72773438 24.0847656,7.82324219 22.9697266,7.82324219 Z M23.7001953,20.9287109 C23.7001953,21.3326172 23.3736328,21.6591797 22.9697266,21.6591797 L5.03027344,21.6591797 C4.62636719,21.6591797 4.29980469,21.3326172 4.29980469,20.9287109 L4.29980469,9.84277344 C4.29980469,9.43886719 4.62636719,9.11230469 5.03027344,9.11230469 L9.83203125,9.11230469 C10.1886719,9.11230469 10.4765625,8.82441406 10.4765625,8.46777344 L10.4765625,7.07128906 C10.4765625,6.66738281 10.803125,6.34082031 11.2070312,6.34082031 L16.7929688,6.34082031 C17.196875,6.34082031 17.5234375,6.66738281 17.5234375,7.07128906 L17.5234375,8.46777344 C17.5234375,8.82441406 17.8113281,9.11230469 18.1679688,9.11230469 L22.9697266,9.11230469 C23.3736328,9.11230469 23.7001953,9.43886719 23.7001953,9.84277344 L23.7001953,20.9287109 Z" id="形状" fill="#494766"></path>
                <path d="M14.0214844,10.5625 C12.7367187,10.5625 11.5271484,11.0630859 10.6183594,11.971875 C9.70957031,12.8806641 9.20898438,14.0902344 9.20898438,15.375 C9.20898438,16.6597656 9.70957031,17.8693359 10.6183594,18.778125 C11.5271484,19.6869141 12.7367187,20.1875 14.0214844,20.1875 C15.30625,20.1875 16.5158203,19.6869141 17.4246094,18.778125 C18.3333984,17.8693359 18.8339844,16.6597656 18.8339844,15.375 C18.8339844,14.0902344 18.3333984,12.8806641 17.4246094,11.971875 C16.5158203,11.0630859 15.30625,10.5625 14.0214844,10.5625 Z M14.0214844,18.8984375 C12.0792969,18.8984375 10.4980469,17.3171875 10.4980469,15.375 C10.4980469,13.4328125 12.0792969,11.8515625 14.0214844,11.8515625 C15.9636719,11.8515625 17.5449219,13.4328125 17.5449219,15.375 C17.5449219,17.3171875 15.9636719,18.8984375 14.0214844,18.8984375 Z" id="形状" fill="#494766"></path>
                <path d="M19.5,11.3037109 C19.5,12.0631025 20.1156085,12.6787109 20.875,12.6787109 C21.6343915,12.6787109 22.25,12.0631025 22.25,11.3037109 C22.25,10.5443194 21.6343915,9.92871094 20.875,9.92871094 C20.1156085,9.92871094 19.5,10.5443194 19.5,11.3037109 Z" id="路径" fill="#494766"></path>
            </g>
        </g>
    </g>
</svg>