<?xml version="1.0" encoding="UTF-8"?>
<svg width="16px" height="16px" viewBox="0 0 16 16" version="1.1" xmlns="http://www.w3.org/2000/svg" xmlns:xlink="http://www.w3.org/1999/xlink">
    <title>icon_xx-1</title>
    <g id="页面-2" stroke="none" stroke-width="1" fill="none" fill-rule="evenodd">
        <g id="14-1-1-满意度调查-已填写" transform="translate(-247, -303)" fill="#FFD00F">
            <g id="编组-7" transform="translate(247, 303)">
                <path d="M7.77937565,12.2684821 L4.14814806,14.0539752 C3.90034207,14.1758226 3.60067874,14.0737131 3.47883128,13.8259071 C3.434386,13.735517 3.41827729,13.6338106 3.43261518,13.5341101 L4.00860895,9.52885974 C4.0306778,9.37540098 3.98031047,9.22038629 3.8722556,9.10920729 L1.05203976,6.20745232 C0.859579675,6.00942776 0.864090575,5.69287741 1.06211514,5.50041732 C1.1343469,5.43021527 1.22609758,5.38346596 1.325349,5.36629297 L5.31256032,4.67640517 C5.46532792,4.64997253 5.59719129,4.55416818 5.66953801,4.41704569 L7.55777636,0.838169442 C7.68663547,0.593936069 7.98908669,0.500406753 8.23332006,0.629265866 C8.32240703,0.676268726 8.39522078,0.749082479 8.44222364,0.838169442 L10.330462,4.41704569 C10.4028087,4.55416818 10.5346721,4.64997253 10.6874397,4.67640517 L14.674651,5.36629297 C14.9467504,5.41337301 15.1291646,5.67211906 15.0820846,5.94421846 C15.0649116,6.04346988 15.0181623,6.13522056 14.9479602,6.20745232 L12.1277444,9.10920729 C12.0196895,9.22038629 11.9693222,9.37540098 11.9913911,9.52885974 L12.5673848,13.5341101 C12.6066924,13.8074405 12.4169794,14.0608837 12.1436489,14.1001913 C12.0439485,14.1145292 11.9422421,14.0984204 11.8518519,14.0539752 L8.22062435,12.2684821 C8.08149605,12.200072 7.91850395,12.200072 7.77937565,12.2684821 Z" id="星形"></path>
            </g>
        </g>
    </g>
</svg>