<?xml version="1.0" encoding="UTF-8"?>
<svg width="40px" height="40px" viewBox="0 0 40 40" version="1.1" xmlns="http://www.w3.org/2000/svg" xmlns:xlink="http://www.w3.org/1999/xlink">
    <title>icon-jgxx</title>
    <g id="页面-2" stroke="none" stroke-width="1" fill="none" fill-rule="evenodd">
        <g id="0-1-机构端首页" transform="translate(-43, -310)">
            <g id="icon-wybt" transform="translate(43, 310)">
                <rect id="矩形" fill="#EFF4F9" x="0" y="0" width="40" height="40" rx="5"></rect>
                <g id="学校" transform="translate(10, 10)" fill-rule="nonzero">
                    <path d="M4.21895511,19.9526378 L1.12102914,19.9526378 C0.501443949,19.9526378 0,19.4500724 0,18.8291014 L0,4.22970662 C0,3.60873569 0.501443949,3.10617024 1.12102914,3.10617024 L4.21895511,3.10617024 C4.8385403,3.10617024 5.33998425,3.60873569 5.33998425,4.22970662 L5.33998425,18.8291014 C5.33998425,19.4487567 4.83722762,19.9526378 4.21895511,19.9526378 L4.21895511,19.9526378 Z" id="路径" fill="#4F86FD"></path>
                    <path d="M19.1323182,0 L7.75662904,0 C7.27742161,0 6.88894723,0.389343218 6.88894723,0.869622418 L6.88894723,19.1303776 C6.88894723,19.6106568 7.27742161,20 7.75662904,20 L19.1323182,20 C19.6115256,20 20,19.6106568 20,19.1303776 L20,0.869622418 C19.9986873,0.389422444 19.6101339,0 19.1323182,0 L19.1323182,0 Z M16.6001575,16.6149191 L10.1496456,16.6149191 L10.1496456,14.4138929 L16.6001575,14.4138929 L16.6001575,16.6149191 L16.6001575,16.6149191 Z M16.6001575,10.984081 L10.1496456,10.984081 L10.1496456,8.78305486 L16.6001575,8.78305486 L16.6001575,10.984081 L16.6001575,10.984081 Z M16.6001575,5.35324299 L10.1496456,5.35324299 L10.1496456,3.15221681 L16.6001575,3.15221681 L16.6001575,5.35324299 L16.6001575,5.35324299 Z" id="形状" fill="#467DFC"></path>
                    <path d="M19.9986873,9.86580713 L19.9986873,0.869622418 C19.9986873,0.389343218 19.6102129,0 19.1310055,0 L7.75662904,0 C7.27742161,0 6.88894723,0.389343218 6.88894723,0.869622418 L6.88894723,19.1303776 C6.88894723,19.6106568 7.27742161,20 7.75662904,20 L9.367288,20 C11.6579155,19.3290357 13.734576,18.1594527 15.4751903,16.6162347 L10.1496456,16.6162347 L10.1496456,14.4138929 L16.6001575,14.4138929 L16.6001575,15.5150638 C18.0939879,13.9047494 19.2622736,11.9865807 19.9986873,9.86580713 Z M10.1496456,3.15221681 L16.6001575,3.15221681 L16.6001575,5.35324299 L10.1496456,5.35324299 L10.1496456,3.15221681 Z M10.1496456,10.984081 L10.1496456,8.78305486 L16.6001575,8.78305486 L16.6001575,10.984081 L10.1496456,10.984081 Z" id="形状" fill="#4F86FD"></path>
                    <path d="M4.26883697,3.10617024 L1.07114728,3.10617024 C0.47912838,3.10617024 0,3.58768583 0,4.1797132 L0,14.9322458 C1.80963139,14.9884407 3.61566774,14.7366583 5.34129693,14.1876069 L5.34129693,4.1797132 C5.33998425,3.58637021 4.85954319,3.10617024 4.26883697,3.10617024 L4.26883697,3.10617024 Z" id="路径" fill="#6591FD"></path>
                    <path d="M4.26883697,3.10617024 L1.07114728,3.10617024 C0.47912838,3.10617024 0,3.58768583 0,4.1797132 L0,8.86199184 C1.90620541,8.42990055 3.71679258,7.64990559 5.34129693,6.56097882 L5.34129693,4.1797132 C5.33998425,3.58637021 4.85954319,3.10617024 4.26883697,3.10617024 L4.26883697,3.10617024 Z" id="路径" fill="#6F99FC"></path>
                    <path d="M6.88894707,0.869622418 L6.88894707,13.6034732 C8.38863569,12.9468857 9.77913462,12.0639562 11.0120767,10.9853967 L10.1496456,10.9853967 L10.1496456,8.78305486 L13.0966133,8.78305486 C13.9157259,7.73713985 14.6061959,6.58597553 15.1483329,5.35324299 L10.1496456,5.35324299 L10.1496456,3.15221681 L15.9306905,3.15221681 C16.2089787,2.1378766 16.3901286,1.08406789 16.4649514,0.00131365854 L7.75662904,0.00131365854 C7.52658365,0.000826209538 7.30580068,0.0921090035 7.14301057,0.255016371 C6.98022046,0.417923738 6.88880721,0.639062052 6.88894707,0.869622418 Z" id="路径" fill="#6591FD"></path>
                    <path d="M6.88894723,0.869622418 L6.88894723,5.38218655 C8.60199527,3.90606499 10,2.07472701 10.9687582,0 L7.75662904,0 C7.27742161,0 6.88894723,0.389343218 6.88894723,0.869622418 Z" id="路径" fill="#6F99FC"></path>
                </g>
            </g>
        </g>
    </g>
</svg>