<?xml version="1.0" encoding="UTF-8"?>
<svg width="40px" height="40px" viewBox="0 0 40 40" version="1.1" xmlns="http://www.w3.org/2000/svg" xmlns:xlink="http://www.w3.org/1999/xlink">
    <title>icon-kqjl</title>
    <g id="页面-2" stroke="none" stroke-width="1" fill="none" fill-rule="evenodd">
        <g id="0-1-机构端首页" transform="translate(-43, -684)">
            <g id="icon-wybt备份" transform="translate(43, 684)">
                <rect id="矩形" fill="#EFF4F9" x="0" y="0" width="40" height="40" rx="5"></rect>
                <g id="考勤" transform="translate(10, 10)" fill-rule="nonzero">
                    <path d="M15.2198111,4.26911238 C14.7859467,4.26911238 14.4339918,3.92361329 14.4339918,3.49770714 L14.4339918,0.771405239 C14.4339918,0.345499089 14.7859467,0 15.2198111,0 C15.6536756,0 16.005634,0.345499089 16.005634,0.771405239 L16.005634,3.49770714 C16.0069104,3.92361329 15.6549554,4.26911238 15.2198111,4.26911238 Z" id="路径" fill="#F65982"></path>
                    <path d="M17.0384583,1.4058672 L17.0384583,3.49770714 C17.0384583,4.38469753 16.1233754,5.10584836 15.2198111,5.10584836 C14.3162468,5.10584836 13.401164,4.38469753 13.401164,3.49770714 L13.401164,1.39581632 L6.71657996,1.39581632 L6.71657996,3.49770714 C6.71657996,4.38469753 5.80149714,5.10584836 4.89793283,5.10584836 C3.99436853,5.10584836 3.07928571,4.38469753 3.07928571,3.49770714 L3.07928571,1.3995854 C1.36686498,1.46742886 0,2.85193794 0,4.54928073 L0,7.01928513 L20,7.01928513 L20,4.54802437 C20.0012789,2.88962875 18.6958461,1.53024687 17.0384583,1.4058672 L17.0384583,1.4058672 Z" id="路径" fill="#F65982"></path>
                    <path d="M4.89793283,4.26911238 C4.46406839,4.26911238 4.11211346,3.92361329 4.11211346,3.49770714 L4.11211346,0.771405239 C4.11211346,0.345499089 4.46406839,0 4.89793283,0 C5.33179728,0 5.68375221,0.345499089 5.68375221,0.771405239 L5.68375221,3.49770714 C5.68375221,3.92361329 5.33179728,4.26911238 4.89793283,4.26911238 Z" id="路径" fill="#FE7D9F"></path>
                    <path d="M16.0069104,0.771405239 C16.0069104,0.345499089 15.6549554,0 15.221091,0 C14.7872265,0 14.4352716,0.345499089 14.4352716,0.771405239 L14.4352716,3.49770714 C14.4352716,3.83064263 14.6515639,4.11206734 14.9523254,4.22011433 C15.4207454,3.18110434 15.7778197,2.08304542 16.0081902,0.941013883 L16.0081902,0.771405239 L16.0069104,0.771405239 Z M14.5798931,4.98649413 C13.9310162,4.74778566 13.4024439,4.16985992 13.4024439,3.49770714 L13.4024439,1.39581632 L6.71657996,1.39581632 L6.71657996,3.49770714 C6.71657996,4.38469753 5.80149714,5.10584836 4.89793283,5.10584836 C3.99436853,5.10584836 3.07928571,4.38469753 3.07928571,3.49770714 L3.07928571,1.3995854 C1.36686498,1.46742886 0,2.85193794 0,4.54928073 L0,7.01928513 L13.3166948,7.01928513 C13.7876745,6.37477228 14.2100204,5.69633771 14.5798931,4.98649413 L14.5798931,4.98649413 Z" id="形状" fill="#FC6A90"></path>
                    <path d="M9.3684004,1.39581632 L6.71657996,1.39581632 L6.71657996,3.49770714 C6.71657996,4.38469753 5.80149714,5.10584836 4.89793283,5.10584836 C3.99436853,5.10584836 3.07928571,4.38469753 3.07928571,3.49770714 L3.07928571,1.3995854 C1.36686498,1.46742886 0,2.85193794 0,4.54928073 L0,7.01928513 L1.92487353,7.01928513 C4.94528677,5.91243169 7.53311541,3.93492054 9.3684004,1.39581632 Z" id="路径" fill="#FE7D9F"></path>
                    <path d="M0,8.59476098 L0,16.8477919 C0,18.5891074 1.4385358,20 3.21110883,20 L16.7876104,20 C18.5614633,20 19.9987192,18.587851 19.9987192,16.8477919 L19.9987192,8.59476098 L0,8.59476098 Z M9.18154433,12.6389849 L3.35701014,12.6389849 C2.756767,12.6389849 2.27042928,12.1615679 2.27042928,11.5723349 C2.27042928,10.983102 2.756767,10.505685 3.35701014,10.505685 L9.18154433,10.505685 C9.78178747,10.505685 10.2681252,10.983102 10.2681252,11.5723349 C10.2681252,12.1615679 9.78178747,12.6389849 9.18154433,12.6389849 Z" id="形状" fill="#EF4D78"></path>
                    <path d="M0,8.59476098 L0,16.8477919 C0,17.4420504 0.170218204,17.9961053 0.46202084,18.4697531 C1.88263893,18.8768139 3.3838867,19.0954206 4.93760775,19.0954206 C11.9050356,19.0954206 17.8268373,14.7082103 19.9961596,8.59476098 L0,8.59476098 L0,8.59476098 Z M9.18154433,12.6389849 L3.35701014,12.6389849 C2.756767,12.6389849 2.27042928,12.1615679 2.27042928,11.5723349 C2.27042928,10.983102 2.756767,10.505685 3.35701014,10.505685 L9.18154433,10.505685 C9.78178747,10.505685 10.2681252,10.983102 10.2681252,11.5723349 C10.2681252,12.1615679 9.78178747,12.6389849 9.18154433,12.6389849 Z" id="形状" fill="#F65982"></path>
                    <path d="M0,8.59476098 L0,13.5335134 C0.122864268,13.5360261 0.244448699,13.5385389 0.367312967,13.5385389 C2.2358737,13.5385389 4.02636444,13.2194233 5.69271107,12.6402412 L3.35701014,12.6402412 C2.756767,12.6402412 2.27042928,12.1628243 2.27042928,11.5735913 C2.27042928,10.9843583 2.756767,10.5069414 3.35701014,10.5069414 L9.18154433,10.5069414 C9.34664319,10.5069414 9.50406303,10.5446322 9.64356517,10.6099629 C10.4920965,10.0131918 11.2817554,9.33978265 11.9946241,8.59476098 L0,8.59476098 L0,8.59476098 Z" id="路径" fill="#FC6A90"></path>
                </g>
            </g>
        </g>
    </g>
</svg>