<?xml version="1.0" encoding="UTF-8"?>
<svg width="40px" height="40px" viewBox="0 0 40 40" version="1.1" xmlns="http://www.w3.org/2000/svg" xmlns:xlink="http://www.w3.org/1999/xlink">
    <title>icon-jkda</title>
    <g id="页面-2" stroke="none" stroke-width="1" fill="none" fill-rule="evenodd">
        <g id="0-1-机构端首页" transform="translate(-43, -763)">
            <g id="icon-vrykt备份" transform="translate(43, 763)">
                <rect id="矩形备份-4" fill="#EFF4F9" x="0" y="0" width="40" height="40" rx="5"></rect>
                <g id="医疗" transform="translate(10, 9)" fill-rule="nonzero">
                    <path d="M13.7802533,3.62978927 L6.21842053,3.62978927 C5.94788144,3.62978927 5.72773689,3.411159 5.72773689,3.14248084 L5.72773689,0.487308429 C5.72773689,0.218630268 5.94788144,0 6.21842053,0 L13.7789271,0 C14.0494662,0 14.2696166,0.218630268 14.2696166,0.487308429 L14.2696166,3.14116379 C14.2702457,3.27049121 14.2189774,3.39474187 14.1271439,3.48643808 C14.0353103,3.57813428 13.910478,3.62972075 13.7802533,3.62978927 L13.7802533,3.62978927 Z" id="路径" fill="#FC6A90"></path>
                    <path d="M17.185863,1.82543103 L16.1660367,1.82543103 L16.1660367,3.96300287 C16.1660367,4.70055077 15.5639546,5.29849138 14.8212983,5.29849138 L5.17870168,5.29849138 C4.43604536,5.29849138 3.83396327,4.70055077 3.83396327,3.96300287 L3.83396327,1.82543103 L2.81413699,1.82543103 C1.2598634,1.82543103 0,3.07662835 0,4.62021073 L0,19.2052203 C0,20.7488027 1.2598634,22 2.81413699,22 L17.185863,22 C18.7401366,22 20,20.7488027 20,19.2052203 L20,4.62021073 C20,3.07662835 18.7401366,1.82543103 17.185863,1.82543103 L17.185863,1.82543103 Z M13.4526888,14.5613027 L11.141171,14.5613027 L11.141171,16.8569205 C11.141171,17.4832003 10.6299545,17.9909004 9.99933691,17.9909004 C9.36871936,17.9909004 8.85750282,17.4832003 8.85750282,16.8569205 L8.85750282,14.5613027 L6.54598501,14.5613027 C5.91536746,14.5613027 5.40415092,14.0536026 5.40415092,13.4273228 C5.40415092,12.801043 5.91536746,12.2933429 6.54598501,12.2933429 L8.85750282,12.2933429 L8.85750282,9.9977251 C8.85750282,9.3714453 9.36871936,8.86374521 9.99933691,8.86374521 C10.6299545,8.86374521 11.141171,9.3714453 11.141171,9.9977251 L11.141171,12.2933429 L13.4526888,12.2933429 C13.755522,12.2933429 14.045952,12.4128154 14.2600874,12.6254779 C14.4742229,12.8381404 14.5945229,13.1265726 14.5945229,13.4273228 C14.5945229,14.0529215 14.0826205,14.5613027 13.4526888,14.5613027 Z" id="形状" fill="#EF4D78"></path>
                    <path d="M20,4.62021073 C20,3.07662835 18.7401366,1.82543103 17.185863,1.82543103 L16.1660367,1.82543103 L16.1660367,3.96300287 C16.1660367,4.70055077 15.5639546,5.29849138 14.8212983,5.29849138 L5.17870168,5.29849138 C4.43604536,5.29849138 3.83396327,4.70055077 3.83396327,3.96300287 L3.83396327,1.82543103 L2.81413699,1.82543103 C1.2598634,1.82543103 0,3.07662835 0,4.62021073 L0,19.2052203 C0,20.7488027 1.2598634,22 2.81413699,22 L6.02214707,22 C13.0826868,20.9094828 18.6950467,15.4727011 20,8.53053161 L20,4.62021073 Z M13.4526888,14.5613027 L11.141171,14.5613027 L11.141171,16.8569205 C11.141171,17.4825192 10.6305948,17.9909004 9.99933691,17.9909004 C9.36807904,17.9909004 8.85750282,17.4838362 8.85750282,16.8569205 L8.85750282,14.5613027 L6.54598501,14.5613027 C5.91536746,14.5613027 5.40415092,14.0536026 5.40415092,13.4273228 C5.40415092,12.801043 5.91536746,12.2933429 6.54598501,12.2933429 L8.85750282,12.2933429 L8.85750282,9.9977251 C8.85750282,9.37212644 9.36807904,8.86374521 9.99933691,8.86374521 C10.6305948,8.86374521 11.141171,9.37080939 11.141171,9.9977251 L11.141171,12.2933429 L13.4526888,12.2933429 C13.755522,12.2933429 14.045952,12.4128154 14.2600874,12.6254779 C14.4742229,12.8381404 14.5945229,13.1265726 14.5945229,13.4273228 C14.5945229,14.0529215 14.0826205,14.5613027 13.4526888,14.5613027 L13.4526888,14.5613027 Z" id="形状" fill="#F65982"></path>
                    <path d="M6.25422717,14.5217912 C5.76619588,14.3927203 5.40547709,13.9528257 5.40547709,13.4273228 C5.40547709,12.801043 5.91669363,12.2933429 6.54731119,12.2933429 L8.85882899,12.2933429 L8.85882899,9.9977251 C8.85882899,9.37212644 9.36940521,8.86374521 10.0006631,8.86374521 C10.631921,8.86374521 11.1424972,9.37080939 11.1424972,9.9977251 L11.1424972,10.9078065 C12.6503548,9.30100575 13.8452357,7.39918582 14.6276772,5.29849138 L5.17870168,5.29849138 C4.43604536,5.29849138 3.83396327,4.70055077 3.83396327,3.96300287 L3.83396327,1.82543103 L2.81413699,1.82543103 C1.2598634,1.82543103 0,3.07662835 0,4.62021073 L0,16.2036638 C2.23194748,16.0469349 4.34453949,15.4582136 6.25422717,14.5217912 Z" id="路径" fill="#FC6A90"></path>
                    <path d="M6.58311783,5.29980843 L5.17870168,5.29980843 C4.43604536,5.29980843 3.83396327,4.70186782 3.83396327,3.96431992 L3.83396327,1.82543103 L2.81413699,1.82543103 C1.2598634,1.82543103 0,3.07662835 0,4.62021073 L0,9.41954023 C2.51442212,8.567409 4.7609575,7.14104406 6.58311783,5.29980843 Z M10.1293018,0 L6.43723891,0 C6.04539176,0 5.72773689,0.315469857 5.72773689,0.704621648 L5.72773689,2.92385057 C5.72773689,3.31369732 6.04601817,3.62847222 6.43723891,3.62847222 L8.03262383,3.62847222 C8.87606923,2.51819923 9.5829189,1.30124521 10.1293018,0 L10.1293018,0 Z" id="形状" fill="#FE7D9F"></path>
                </g>
            </g>
        </g>
    </g>
</svg>