<?xml version="1.0" encoding="UTF-8"?>
<svg width="40px" height="40px" viewBox="0 0 40 40" version="1.1" xmlns="http://www.w3.org/2000/svg" xmlns:xlink="http://www.w3.org/1999/xlink">
    <title>icon-bjgl</title>
    <g id="页面-2" stroke="none" stroke-width="1" fill="none" fill-rule="evenodd">
        <g id="0-1-机构端首页" transform="translate(-209, -310)">
            <g id="icon-rttj" transform="translate(209, 310)">
                <rect id="矩形备份-2" fill="#EFF4F9" x="0" y="0" width="40" height="40" rx="5"></rect>
                <g id="头条-(1)" transform="translate(11, 10)" fill-rule="nonzero">
                    <path d="M15.3259196,0 L2.67536356,0 C1.19846022,0 0,1.21505118 0,2.71530729 L0,19.6049093 C0,20.6259169 1.04704876,21.299209 1.95680068,20.8642389 L7.84901625,18.0408402 C8.57114818,17.694657 9.40793823,17.6941794 10.1304534,18.0395379 L16.0431993,20.8655412 C16.9529512,21.3005113 17.9987179,20.6272193 17.9987179,19.6062116 L17.9987179,2.71530729 C18,1.21635348 16.8028229,0 15.3259196,0 L15.3259196,0 Z M13.0021386,12.2182316 L4.99786142,12.2182316 C4.46990744,12.2182316 4.04191617,11.7838504 4.04191617,11.2480139 C4.04191617,10.7121775 4.46990744,10.2777962 4.99786142,10.2777962 L13.0021386,10.2777962 C13.5307956,10.2777962 13.9580838,10.7127663 13.9580838,11.2480139 C13.9580838,11.7832616 13.5307956,12.2182316 13.0021386,12.2182316 Z M13.0021386,7.78909012 L4.99786142,7.78909012 C4.46990744,7.78909012 4.04191617,7.35470885 4.04191617,6.8188724 C4.04191617,6.28303596 4.46990744,5.84865469 4.99786142,5.84865469 L13.0021386,5.84865469 C13.5300926,5.84865469 13.9580838,6.28303596 13.9580838,6.8188724 C13.9580838,7.35470885 13.5300926,7.78909012 13.0021386,7.78909012 L13.0021386,7.78909012 Z" id="形状" fill="#467DFC"></path>
                    <path d="M18,9.47036672 L18,2.71530729 C18,1.21635348 16.8028229,0 15.3246364,0 L2.67536356,0 C1.19846022,0 0,1.21505118 0,2.71530729 L0,18.8456651 C1.11823995,19.0936523 2.25956851,19.2185274 3.40419162,19.2181255 C4.20487596,19.2181255 4.99144568,19.1569162 5.76005133,19.041011 L7.84901625,18.0395379 C8.44054748,17.7569376 9.10778443,17.7087523 9.72626176,17.8884705 C13.43071,16.2566815 16.4011976,13.2353324 18,9.47036672 Z M13.0021386,12.2182316 L4.99786142,12.2182316 C4.46990744,12.2182316 4.04191617,11.7838504 4.04191617,11.2480139 C4.04191617,10.7121775 4.46990744,10.2777962 4.99786142,10.2777962 L13.0021386,10.2777962 C13.5307956,10.2777962 13.9580838,10.7127663 13.9580838,11.2480139 C13.9580838,11.7832616 13.5307956,12.2182316 13.0021386,12.2182316 Z M13.0021386,7.78909012 L4.99786142,7.78909012 C4.46990744,7.78909012 4.04191617,7.35470885 4.04191617,6.8188724 C4.04191617,6.28303596 4.46990744,5.84865469 4.99786142,5.84865469 L13.0021386,5.84865469 C13.5300926,5.84865469 13.9580838,6.28303596 13.9580838,6.8188724 C13.9580838,7.35470885 13.5300926,7.78909012 13.0021386,7.78909012 L13.0021386,7.78909012 Z" id="形状" fill="#4F86FD"></path>
                    <path d="M5.25577417,12.2182316 L4.99786142,12.2182316 C4.46990744,12.2182316 4.04191617,11.7838504 4.04191617,11.2480139 C4.04191617,10.7121775 4.46990744,10.2777962 4.99786142,10.2777962 L8.57784431,10.2777962 C9.53507271,9.54980736 10.4076133,8.71372713 11.1800684,7.78909012 L4.99786142,7.78909012 C4.46990744,7.78909012 4.04191617,7.35470885 4.04191617,6.8188724 C4.04191617,6.28303596 4.46990744,5.84865469 4.99786142,5.84865469 L12.572284,5.84865469 C13.66359,4.06218126 14.3982203,2.07539369 14.7343884,0.00130230565 L2.67536356,0.00130230565 C1.19846022,0.00130230565 0,1.21635348 0,2.71660959 L0,13.4632359 C1.85543199,13.3525399 3.62489307,12.9201744 5.25577417,12.2182316 Z" id="路径" fill="#6591FD"></path>
                    <path d="M8.66124893,0 L2.67536356,0 C1.19846022,0 0,1.21505118 0,2.71530729 L0,6.98947445 C3.64542344,5.7809348 6.70958084,3.2713918 8.66124893,0 Z" id="路径" fill="#6F99FC"></path>
                </g>
            </g>
        </g>
    </g>
</svg>