<?xml version="1.0" encoding="UTF-8"?>
<svg width="40px" height="40px" viewBox="0 0 40 40" version="1.1" xmlns="http://www.w3.org/2000/svg" xmlns:xlink="http://www.w3.org/1999/xlink">
    <title>icon-qjsq</title>
    <g id="页面-2" stroke="none" stroke-width="1" fill="none" fill-rule="evenodd">
        <g id="0-1-机构端首页" transform="translate(-126, -763)">
            <g id="icon-yyzhhd备份" transform="translate(126, 763)">
                <rect id="矩形备份-5" fill="#EFF4F9" x="0" y="0" width="40" height="40" rx="5"></rect>
                <g id="请假申请" transform="translate(10, 9)" fill-rule="nonzero">
                    <path d="M15.9551007,0 L4.04489931,0 C1.81446022,0 0,1.79490529 0,4.00130634 L0,19.8576094 C0,20.4728935 0.320897986,21.0254735 0.859689667,21.3337688 C1.39848135,21.6433703 2.04291845,21.6446767 2.5830307,21.3389941 L5.81578079,19.5088178 L9.02476065,21.6969301 C9.31222586,21.8939794 9.65356547,21.9996978 10.0033014,22 C10.3400462,22 10.6754705,21.9020248 10.9699571,21.7047681 L14.2515682,19.5088178 L17.4064048,21.3233181 C17.946517,21.634226 18.5922747,21.6355323 19.1337075,21.3272371 C19.6751403,21.0189419 19.9986802,20.4663619 19.9986802,19.8471587 L19.9986802,4.00130634 C20,1.79490529 18.1855398,0 15.9551007,0 L15.9551007,0 Z M14.5183229,12.727629 L9.3100033,12.727629 C9.01510428,12.727629 8.73228355,12.6117434 8.52375846,12.4054656 C8.31523336,12.1991878 8.19808518,11.9194151 8.19808518,11.6276943 L8.19808518,5.72305683 C8.19808518,5.11557967 8.69590788,4.62312214 9.3100033,4.62312214 C9.92409872,4.62312214 10.4219214,5.11557967 10.4219214,5.72305683 L10.4219214,10.5264533 L14.5183229,10.5264533 C15.1323869,10.5264533 15.630241,11.0189419 15.630241,11.626388 C15.630241,12.2338341 15.1323869,12.727629 14.5183229,12.727629 L14.5183229,12.727629 Z" id="形状" fill="#EF4D78"></path>
                    <path d="M20,8.30829523 L20,4.00130634 C20,1.79490529 18.1855398,0 15.9551007,0 L4.04489931,0 C1.81446022,0 0,1.79490529 0,4.00130634 L0,19.8576094 C0,20.4728935 0.320897986,21.0254735 0.859689667,21.3337688 C1.39848135,21.6433703 2.04291845,21.6446767 2.5830307,21.3389941 L5.81578079,19.5088178 L8.71838891,21.4879164 C14.5051172,19.4186806 18.8748762,14.4232528 20,8.30829523 Z M9.3100033,12.727629 C9.01510428,12.727629 8.73228355,12.6117434 8.52375846,12.4054656 C8.31523336,12.1991878 8.19808518,11.9194151 8.19808518,11.6276943 L8.19808518,5.72305683 C8.19808518,5.11557967 8.69590788,4.62312214 9.3100033,4.62312214 C9.92409872,4.62312214 10.4219214,5.11557967 10.4219214,5.72305683 L10.4219214,10.5264533 L14.5183229,10.5264533 C15.1324183,10.5264533 15.630241,11.0189108 15.630241,11.626388 C15.630241,12.2338651 15.1324183,12.7263227 14.5183229,12.7263227 L9.3100033,12.7263227 L9.3100033,12.727629 Z" id="形状" fill="#F65982"></path>
                    <path d="M8.83856058,12.6231221 C8.44728021,12.4428567 8.19700338,12.0546764 8.19676461,11.6276943 L8.19676461,5.72305683 C8.19676461,5.11557967 8.69458731,4.62312214 9.30868273,4.62312214 C9.92277816,4.62312214 10.4206009,5.11557967 10.4206009,5.72305683 L10.4206009,10.5264533 L11.0795642,10.5264533 C13.6216573,7.6930111 15.2393529,4.03004572 15.4638495,0 L4.04489931,0 C1.81446022,0 0,1.79490529 0,4.00130634 L0,16.2429784 C3.31726642,15.8641411 6.35193133,14.5708687 8.83856058,12.6231221 Z" id="路径" fill="#FC6A90"></path>
                    <path d="M9.55034665,0 L4.04489931,0 C1.81446022,0 0,1.79490529 0,4.00130634 L0,9.0202482 C4.24826675,7.35989549 7.68306372,4.10450686 9.55034665,0 Z" id="路径" fill="#FE7D9F"></path>
                </g>
            </g>
        </g>
    </g>
</svg>