<?xml version="1.0" encoding="UTF-8"?>
<svg width="40px" height="40px" viewBox="0 0 40 40" version="1.1" xmlns="http://www.w3.org/2000/svg" xmlns:xlink="http://www.w3.org/1999/xlink">
    <title>icon-jgmyd</title>
    <g id="页面-2" stroke="none" stroke-width="1" fill="none" fill-rule="evenodd">
        <g id="0-1-机构端首页" transform="translate(-292, -763)">
            <g id="icon-yjrt备份-2" transform="translate(292, 763)">
                <rect id="矩形备份-3" fill="#EFF4F9" x="0" y="0" width="40" height="40" rx="5"></rect>
                <g id="点赞" transform="translate(10, 9)" fill-rule="nonzero">
                    <path d="M4.78908388,13.7425619 C4.78908388,11.9278245 4.8005272,10.1130872 4.78135491,8.29963502 C4.77636908,7.77140764 4.9645481,7.49508431 5.47186857,7.31772329 C7.4096039,6.64426552 8.55520727,5.21895125 9.11847285,3.2654096 C9.31428075,2.5855257 9.49483089,1.89536 9.76819906,1.24760671 C10.2119455,0.197578078 11.0269641,-0.171281431 12.1585812,0.0729112754 C13.0320879,0.261839316 13.5826387,1.01626626 13.591539,2.07272101 C13.6029824,3.41963657 13.5928105,4.76655213 13.596625,6.11346769 C13.5991679,6.8511867 13.7263159,7.00284323 14.4714031,7.01055457 C15.9704779,7.0272625 17.4708241,7.06196356 18.9673559,7.00284323 C20.2998669,6.95014901 21.2687345,7.82795753 20.9330638,9.32910006 C20.5312762,11.1271295 20.0239557,12.9020249 19.5280786,14.6782055 C19.2229234,15.773217 18.8643661,16.8540911 18.5134376,17.9349651 C18.0493475,19.3654203 17.1834697,19.9977509 15.7212678,19.9977509 L5.89527137,19.9977509 C4.83994308,19.9977509 4.7878124,19.9463419 4.7878124,18.9040246 C4.78908388,17.1843938 4.78908388,15.4634779 4.78908388,13.7425619 Z" id="路径" fill="#EF4D78"></path>
                    <path d="M3.18447628,13.7027199 C3.18447628,15.4609074 3.18829072,17.2203801 3.18193332,18.9785676 C3.17939036,19.8435239 3.02045538,19.9964656 2.18255014,19.9990361 C1.94224045,20.0003213 1.70193075,20.0003213 1.46034957,19.9990361 C0.477495633,19.9938952 0.0108625194,19.5312143 0.00577659992,18.5133162 C-0.00439523907,16.6805857 0.0019621603,14.84657 0.0019621603,13.0125542 C0.0019621603,11.6656387 -0.00312375919,10.3187231 0.00450512004,8.97180757 C0.0108625194,7.90121534 0.523268908,7.38969588 1.56715388,7.38584021 C3.1832048,7.37941408 3.1832048,7.37941408 3.1832048,8.98851549 C3.18574776,10.5590602 3.18574776,12.1308901 3.18447628,13.7027199 L3.18447628,13.7027199 Z M19.7709312,7.24318026 C19.7709312,7.19434172 19.7683883,7.1467884 19.7671168,7.09794986 C19.5229926,7.02597727 19.2547104,6.99256143 18.9686274,7.00284323 C17.4720956,7.06196356 15.9717494,7.0272625 14.4726746,7.01055457 C13.7288589,7.00284323 13.6004394,6.8511867 13.5978964,6.11346769 C13.594082,4.76655213 13.6042538,3.41963657 13.5928105,2.07272101 C13.5839102,1.01626626 13.0320879,0.261839316 12.1598527,0.0729112754 C11.0282356,-0.172566655 10.213217,0.197578078 9.76947054,1.24760671 C9.49610237,1.89536 9.31555223,2.58681092 9.11974433,3.2654096 C8.55647874,5.22023647 7.41087538,6.64426552 5.47314005,7.31772329 C4.9645481,7.49508431 4.77636908,7.77140764 4.78272648,8.29963502 C4.80179868,10.1143724 4.79035536,11.9278245 4.79035536,13.7425619 L4.79035536,18.9053098 C4.79035536,19.9476271 4.84248604,19.9990361 5.89781433,19.9990361 L11.4262088,19.9990361 C16.3303067,17.888697 19.7709312,12.971427 19.7709312,7.24318026 Z" id="形状" fill="#F65982"></path>
                    <path d="M1.56969684,7.38455498 C0.525811868,7.38841066 0.0121339993,7.90121534 0.00704807979,8.97052235 C-0.000580799448,10.3174379 0.00450512004,11.6643535 0.00450512004,13.011269 C0.00450512004,13.9996069 0.00323364017,14.9879447 0.00323364017,15.9762826 C0.754678245,16.104805 1.52646653,16.1767776 2.31351257,16.1767776 C2.60722442,16.1767776 2.89712183,16.1639254 3.18574776,16.1459322 C3.18574776,15.3310997 3.18447628,14.5162672 3.18447628,13.7014347 L3.18447628,8.98723027 C3.18574776,7.37941408 3.18447628,7.37812886 1.56969684,7.38455498 Z M15.2114044,7.01955115 C14.9647373,7.0169807 14.7193417,7.01312502 14.4726746,7.01055457 C13.7288589,7.00284323 13.6004394,6.8511867 13.5978964,6.11346769 C13.594082,4.76655213 13.6042538,3.41963657 13.5928105,2.07272101 C13.5839102,1.01626626 13.0320879,0.261839316 12.1598527,0.0729112754 C11.0282356,-0.172566655 10.213217,0.197578078 9.76947054,1.24760671 C9.49610237,1.89536 9.31555223,2.58681092 9.11974433,3.2654096 C8.55647874,5.22023647 7.41087538,6.64426552 5.47314005,7.31772329 C4.9645481,7.49508431 4.77636908,7.77140764 4.78272648,8.29963502 C4.80179868,10.1143724 4.79035536,11.9278245 4.79035536,13.7425619 L4.79035536,15.9480076 C9.6270648,15.0547764 13.5788242,11.598807 15.2114044,7.01955115 Z" id="形状" fill="#FC6A90"></path>
                    <path d="M12.3124303,0.112753243 C12.2628426,0.097330546 12.2119834,0.0844782983 12.1598527,0.0729112754 C11.0282356,-0.172566655 10.213217,0.197578078 9.76947054,1.24760671 C9.49610237,1.89536 9.31555223,2.58681092 9.11974433,3.2654096 C8.55647874,5.22023647 7.41087538,6.64426552 5.47314005,7.31772329 C4.9645481,7.49508431 4.77636908,7.77140764 4.78272648,8.29963502 C4.7878124,8.83814419 4.79035536,9.37665337 4.79162684,9.91516255 C8.62386718,8.05544231 11.4668962,4.44653116 12.3124303,0.112753243 Z M1.56969684,7.38455498 C0.525811868,7.38841066 0.0121339993,7.90121534 0.00704807979,8.97052235 C0.0019621603,9.72237883 0.0019621603,10.4729501 0.0019621603,11.2235214 C1.10560669,11.1322704 2.17110682,10.9086413 3.18574776,10.5680567 L3.18574776,8.98723027 C3.18574776,7.37941408 3.18447628,7.37812886 1.56969684,7.38455498 Z" id="形状" fill="#FE7D9F"></path>
                </g>
            </g>
        </g>
    </g>
</svg>