<?xml version="1.0" encoding="UTF-8"?>
<svg width="40px" height="40px" viewBox="0 0 40 40" version="1.1" xmlns="http://www.w3.org/2000/svg" xmlns:xlink="http://www.w3.org/1999/xlink">
    <title>icon-rtyy</title>
    <g id="页面-2" stroke="none" stroke-width="1" fill="none" fill-rule="evenodd">
        <g id="0-1-机构端首页" transform="translate(-292, -537)">
            <g id="icon-yjrt" transform="translate(292, 537)">
                <rect id="矩形备份-3" fill="#EFF4F9" x="0" y="0" width="40" height="40" rx="5"></rect>
                <g id="时间" transform="translate(9, 9)" fill-rule="nonzero">
                    <path d="M11,4.19510604e-06 C4.92533365,4.19510604e-06 0,4.92533691 0,11.0000042 C0,17.0746673 4.92533365,22.0000042 11,22.0000042 C17.0746663,22.0000042 22,17.0746673 22,11.0000042 C22,4.92533691 17.0759889,4.19510604e-06 11,4.19510604e-06 L11,4.19510604e-06 Z M15.2600697,13.0963105 L10.0530239,13.0963105 C9.44330889,13.0963105 8.94865937,12.601661 8.94865937,11.9919461 L8.94865937,5.94770055 C8.94865937,5.33798562 9.44330889,4.8433362 10.0530239,4.8433362 C10.662739,4.8433362 11.1573885,5.33798562 11.1573885,5.94770055 L11.1573885,10.8875818 L15.2600697,10.8875818 C15.8697848,10.8875818 16.3644369,11.3822312 16.3644369,11.9919461 C16.3657569,12.601661 15.8711074,13.0963105 15.2600697,13.0963105 L15.2600697,13.0963105 Z" id="形状" fill="#0DBFAA"></path>
                    <path d="M19.4817843,6.19502526 C19.4817843,5.36311487 19.4103643,4.54707559 19.2728147,3.75352037 C17.2571841,1.45353283 14.2985451,4.19510604e-06 11,4.19510604e-06 C4.92533365,4.19510604e-06 0,4.92533691 0,11.0000042 C0,15.02994 2.16772875,18.55068 5.39882169,20.4671158 C13.1941806,20.3639537 19.4817843,14.0155119 19.4817843,6.19502526 Z M8.94865937,5.94637796 C8.94865937,5.33666303 9.44330889,4.84201361 10.0530239,4.84201361 C10.662739,4.84201361 11.1573885,5.33666303 11.1573885,5.94637796 L11.1573885,10.8862592 L15.2600697,10.8862592 C15.8697848,10.8862592 16.3644343,11.3809086 16.3644343,11.9906235 C16.3644343,12.6003385 15.8697848,13.0949879 15.2600697,13.0949879 L10.0530239,13.0949879 C9.44330889,13.0949879 8.94865937,12.6003385 8.94865937,11.9906235 L8.94865937,5.94637796 L8.94865937,5.94637796 Z" id="形状" fill="#15C5B1"></path>
                    <path d="M0,11 C0,12.5633059 0.328002886,14.0485767 0.915233858,15.3949754 C1.04352531,15.3989432 1.17313935,15.4002658 1.3027534,15.4002658 C4.31032824,15.4002658 7.09967536,14.469161 9.40098593,12.880728 C9.11665325,12.6733397 8.94855694,12.3425538 8.94865937,11.9906235 L8.94865937,5.94637796 C8.94865937,5.33666303 9.44330889,4.84201361 10.0530239,4.84201361 C10.662739,4.84201361 11.1573885,5.33666303 11.1573885,5.94637796 L11.1573885,10.8862592 L11.716845,10.8862592 C14.1094145,8.33365657 15.5761693,4.90153025 15.5761693,1.12553001 C15.5761693,1.08188447 15.5748467,1.03956153 15.5748467,0.997238585 C14.1396537,0.338812234 12.5790194,-0.00137800922 11,0 C4.92533365,0 0,4.92533691 0,11 L0,11 Z" id="路径" fill="#17CAB6"></path>
                    <path d="M0.0357099916,10.1601562 C5.50859685,9.26476136 9.93531321,5.25598492 11.4364555,0.0119075234 C11.2922929,0.00661715525 11.1468077,0.00132649426 11,0.00132649426 C5.2083684,4.19510601e-06 0.465552483,4.4783008 0.0357099916,10.1601562 Z" id="路径" fill="#1BD2BE"></path>
                </g>
            </g>
        </g>
    </g>
</svg>