<?xml version="1.0" encoding="UTF-8"?>
<svg width="40px" height="40px" viewBox="0 0 40 40" version="1.1" xmlns="http://www.w3.org/2000/svg" xmlns:xlink="http://www.w3.org/1999/xlink">
    <title>icon-yyqy</title>
    <g id="页面-2" stroke="none" stroke-width="1" fill="none" fill-rule="evenodd">
        <g id="0-1-机构端首页" transform="translate(-292, -310)">
            <g id="icon-yjrt" transform="translate(292, 310)">
                <rect id="矩形备份-3" fill="#EFF4F9" x="0" y="0" width="40" height="40" rx="5"></rect>
                <g id="医疗-(1)" transform="translate(9, 9)" fill-rule="nonzero">
                    <path d="M20.8374556,18.6230366 L19.6505849,18.6230366 L19.6505849,1.88612565 C19.6505849,0.844240838 18.8247687,0 17.8056218,0 L4.19437816,0 C3.17523133,0 2.34941512,0.844240838 2.34941512,1.88612565 L2.34941512,18.6230366 L1.16254438,18.6230366 C0.520488846,18.6230366 0,19.155138 0,19.8115183 C0,20.4678986 0.520488846,21 1.16254438,21 L20.8374556,21 C21.4795112,21 22,20.4678986 22,19.8115183 C22,19.155138 21.4795112,18.6230366 20.8374556,18.6230366 Z M15.0669848,21 L12.7418961,21 L12.7418961,16.3788665 L9.25810394,16.3788665 L9.25810394,21 L6.93301519,21 L6.93301519,15.1903848 C6.93301519,14.5340045 7.45350404,14.0019031 8.09555956,14.0019031 L13.9044404,14.0019031 C14.546496,14.0019031 15.0669848,14.5340045 15.0669848,15.1903848 L15.0669848,21 Z M12.1619042,8.21858639 L12.1619042,10 C12.1619042,10.6563803 11.6414154,11.1884817 10.9993598,11.1884817 C10.3573043,11.1884817 9.83681546,10.6563803 9.83681546,10 L9.83681546,8.21858639 L8.09555956,8.21858639 C7.45350404,8.21858639 6.93301519,7.68648502 6.93301519,7.03010471 C6.93301519,6.37372441 7.45350404,5.84162304 8.09555956,5.84162304 L9.83809579,5.84162304 L9.83809579,4.06151832 C9.83809579,3.40513802 10.3585846,2.87303665 11.0006402,2.87303665 C11.6426957,2.87303665 12.1631845,3.40513802 12.1631845,4.06151832 L12.1631845,5.84162304 L13.9057208,5.84162304 C14.548449,5.84162304 15.0682651,6.37434555 15.0682651,7.03010471 C15.0682651,7.68586387 14.5458884,8.21858639 13.9044404,8.21858639 L12.1619042,8.21858639 Z" id="形状" fill="#467DFC"></path>
                    <path d="M12.7418961,16.3788665 L9.25810394,16.3788665 L9.25810394,20.9335995 L9.25810394,21 L6.93301519,21 L6.93301519,15.1903848 C6.93301519,14.5340045 7.45350404,14.0019031 8.09555956,14.0019031 L13.9044404,14.0019031 C14.546496,14.0019031 15.0669848,14.5340045 15.0669848,15.1903848 L15.0669848,17.5732984 C17.0975965,15.7578534 18.6877728,13.4397906 19.6505849,10.8075916 L19.6505849,1.88612565 C19.6505849,0.844240838 18.8247687,0 17.8056218,0 L4.19437816,0 C3.17523133,0 2.34941512,0.844240838 2.34941512,1.88612565 L2.34941512,18.6230366 L1.16254438,18.6230366 C0.520488846,18.6230366 0,19.155138 0,19.8115183 C0,20.4678986 0.520488846,21 1.16254438,21 L9.25810394,21 C10.5711131,20.5944035 11.5827355,20.0247376 12.7340471,19.3148234 C12.7386496,19.1094775 12.7412659,18.1308251 12.7418961,16.3788665 Z M8.09555956,5.84162304 L9.83809579,5.84162304 L9.83809579,4.06151832 C9.83809579,3.40513802 10.3585846,2.87303665 11.0006402,2.87303665 C11.6426957,2.87303665 12.1631845,3.40513802 12.1631845,4.06151832 L12.1631845,5.84162304 L13.9057208,5.84162304 C14.5477763,5.84162304 15.0682651,6.37372441 15.0682651,7.03010471 C15.0682651,7.68648502 14.5477763,8.21858639 13.9057208,8.21858639 L12.1631845,8.21858639 L12.1631845,10 C12.1631845,10.6563803 11.6426957,11.1884817 11.0006402,11.1884817 C10.3585846,11.1884817 9.83809579,10.6563803 9.83809579,10 L9.83809579,8.21989529 L8.09555956,8.21989529 C7.45283129,8.21989529 6.93301519,7.68717277 6.93301519,7.03141361 C6.93301519,6.37565445 7.45283129,5.84162304 8.09555956,5.84162304 Z" id="形状" fill="#4F86FD"></path>
                    <path d="M6.93301519,14.0825135 C8.35802828,13.3757072 9.16335913,12.7526178 9.64604551,12.3808901 C10.1287319,12.0091623 10.5909329,11.6099476 11.0300879,11.1871728 C11.0198452,11.1871728 11.0108828,11.1884817 11.0006402,11.1884817 C10.3585846,11.1884817 9.83809579,10.6563803 9.83809579,10 L9.83809579,8.21989529 L8.09555956,8.21989529 C7.68022245,8.2198953 7.29643513,7.99337198 7.08876657,7.62565446 C6.88109802,7.25793695 6.88109802,6.80489028 7.08876657,6.43717276 C7.29643513,6.06945525 7.68022245,5.84293192 8.09555956,5.84293194 L9.83809579,5.84293194 L9.83809579,4.06151832 C9.83809579,3.40513802 10.3585846,2.87303665 11.0006402,2.87303665 C11.6426957,2.87303665 12.1631845,3.40513802 12.1631845,4.06151832 L12.1631845,5.84162304 L13.9057208,5.84162304 C14.1835535,5.84162304 14.4383402,5.94109948 14.6380725,6.10732984 C15.4997381,4.23560209 16.0336379,2.17408377 16.1629518,0 L4.19437816,0 C3.17523133,0 2.34941512,0.844240838 2.34941512,1.88612565 L2.34941512,15.5484293 C3.96775883,15.2879581 5.5080021,14.7893197 6.93301519,14.0825135 Z" id="路径" fill="#6591FD"></path>
                    <path d="M12.1619042,9.98298429 C12.6356282,9.42670157 13.0747832,8.83638743 13.4742478,8.21858639 L12.1619042,8.21858639 L12.1619042,9.98298429 Z" id="路径" fill="#8486F8"></path>
                    <path d="M10.5806902,0.00130890052 L4.19437816,0.00130890052 C3.17523133,0.00130890052 2.34941512,0.845549738 2.34941512,1.88743455 L2.34941512,8.35209424 C5.98684747,6.68455497 8.92265611,3.70418848 10.5806902,0.00130890052 Z" id="路径" fill="#6F99FC"></path>
                </g>
            </g>
        </g>
    </g>
</svg>