<?xml version="1.0" encoding="UTF-8"?>
<svg width="40px" height="40px" viewBox="0 0 40 40" version="1.1" xmlns="http://www.w3.org/2000/svg" xmlns:xlink="http://www.w3.org/1999/xlink">
    <title>icon-yrlc</title>
    <g id="页面-2" stroke="none" stroke-width="1" fill="none" fill-rule="evenodd">
        <g id="0-1-机构端首页" transform="translate(-209, -684)">
            <g id="icon-rttj备份" transform="translate(209, 684)">
                <rect id="矩形备份-2" fill="#EFF4F9" x="0" y="0" width="40" height="40" rx="5"></rect>
                <g id="任务" transform="translate(10, 10)" fill-rule="nonzero">
                    <path d="M16.1221657,0 L3.87783434,0 C1.73993522,0 0,1.72703412 0,3.84908136 L0,16.1509186 C0,18.2729659 1.73993522,20 3.87783434,20 L16.1221657,20 C18.2600648,20 20,18.2729659 20,16.1509186 L20,3.84908136 C20,1.72572178 18.2613869,0 16.1221657,0 Z M5.71957427,15.5065617 C4.24274476,15.5065617 3.04092021,14.3136483 3.04092021,12.847769 C3.04092021,11.3818898 4.24274476,10.1889764 5.71957427,10.1889764 C7.19640378,10.1889764 8.39822833,11.3818898 8.39822833,12.847769 C8.39690619,14.3149606 7.19508164,15.5065617 5.71957427,15.5065617 L5.71957427,15.5065617 Z M8.79090368,5.66535433 L6.11357176,8.2480315 C5.92734692,8.4278129 5.67790648,8.5285438 5.41812653,8.52887139 L5.40093872,8.52887139 C5.13499127,8.52438712 4.88182881,8.41480404 4.69756065,8.22440945 L3.13214782,6.60761155 C2.75004958,6.21259843 2.76194883,5.58530184 3.15991274,5.20603675 C3.55787664,4.82677165 4.18985919,4.83858268 4.57195743,5.2335958 L5.4406029,6.1312336 L7.39736894,4.24409449 C7.79268857,3.86220472 8.42599326,3.87139108 8.80941363,4.26377953 C8.99455268,4.45190013 9.09665453,4.70542039 9.09318175,4.96837957 C9.08970897,5.23133876 8.9809471,5.48211538 8.79090368,5.66535433 L8.79090368,5.66535433 Z M16.428902,14.015748 L10.6564421,14.015748 C10.0613769,14.0065457 9.5838406,13.5251079 9.5838406,12.9343832 C9.5838406,12.3436585 10.0613769,11.8622207 10.6564421,11.8530184 L16.428902,11.8530184 C17.0239672,11.8622207 17.5015035,12.3436585 17.5015035,12.9343832 C17.5015035,13.5251079 17.0239672,14.0065457 16.428902,14.015748 Z M16.428902,7.53674541 L10.6564421,7.53674541 C10.0613769,7.52754309 9.5838406,7.04610528 9.5838406,6.45538058 C9.5838406,5.86465588 10.0613769,5.38321806 10.6564421,5.37401575 L16.428902,5.37401575 C17.0239672,5.38321806 17.5015035,5.86465588 17.5015035,6.45538058 C17.5015035,7.04610528 17.0239672,7.52754309 16.428902,7.53674541 Z" id="形状" fill="#EF4D78"></path>
                    <path d="M5.69842004,11.9645669 C5.19336286,11.9645669 4.7834997,12.3727034 4.7834997,12.8727034 C4.7834997,13.3727034 5.194685,13.7808399 5.69842004,13.7808399 C6.20347723,13.7808399 6.61334038,13.3727034 6.61334038,12.8727034 C6.61334038,12.3727034 6.20347723,11.9645669 5.69842004,11.9645669 Z" id="路径" fill="#F65982"></path>
                    <path d="M5.69842004,11.9645669 C5.19336286,11.9645669 4.7834997,12.3727034 4.7834997,12.8727034 C4.7834997,13.0498688 4.83638527,13.2152231 4.92629074,13.3543307 C5.48819991,13.1272966 6.03424341,12.8687664 6.56177696,12.5813648 C6.43881801,12.2244094 6.10035037,11.9645669 5.69842004,11.9645669 Z" id="路径" fill="#FC6A90"></path>
                    <path d="M18.9541879,1.22834646 C18.2455213,0.475065617 17.2393733,0 16.1221657,0 L3.87783434,0 C1.73993522,0 0,1.72703412 0,3.84908136 L0,16.1509186 C0,18.2729659 1.73993522,20 3.87783434,20 L5.55695115,20 C9.74945462,19.4028871 13.4144245,17.187664 15.8960799,14.015748 L10.65512,14.015748 C10.0600547,14.0065457 9.58251846,13.5251079 9.58251846,12.9343832 C9.58251846,12.3436585 10.0600547,11.8622207 10.65512,11.8530184 L16.4275798,11.8530184 C16.7105176,11.8530184 16.9683348,11.9619423 17.1626892,12.1377953 C18.4914391,9.82414698 19.2530037,7.14698163 19.2530037,4.29265092 C19.2543135,3.24409449 19.1498645,2.2191601 18.9541879,1.22834646 Z M5.71957427,15.5065617 C4.24274476,15.5065617 3.04092021,14.3136483 3.04092021,12.847769 C3.04092021,11.3818898 4.24274476,10.1889764 5.71957427,10.1889764 C7.19640378,10.1889764 8.39822833,11.3818898 8.39822833,12.847769 C8.39690619,14.3149606 7.19508164,15.5065617 5.71957427,15.5065617 Z M8.79090368,5.66535433 L6.11357176,8.2480315 C5.92734692,8.4278129 5.67790648,8.5285438 5.41812653,8.52887139 L5.40093872,8.52887139 C5.13499127,8.52438712 4.88182881,8.41480404 4.69756065,8.22440945 L3.13214782,6.60761155 C2.75004958,6.21259843 2.76194883,5.58530184 3.15991274,5.20603675 C3.55787664,4.82677165 4.18985919,4.83858268 4.57195743,5.2335958 L5.4406029,6.1312336 L7.39736894,4.24409449 C7.79268857,3.86220472 8.42599326,3.87139108 8.80941363,4.26377953 C8.99455268,4.45190013 9.09665453,4.70542039 9.09318175,4.96837957 C9.08970897,5.23133876 8.9809471,5.48211538 8.79090368,5.66535433 L8.79090368,5.66535433 Z M16.428902,7.53674541 L10.6564421,7.53674541 C10.0613769,7.52754309 9.5838406,7.04610528 9.5838406,6.45538058 C9.5838406,5.86465588 10.0613769,5.38321806 10.6564421,5.37401575 L16.428902,5.37401575 C17.0239672,5.38321806 17.5015035,5.86465588 17.5015035,6.45538058 C17.5015035,7.04610528 17.0239672,7.52754309 16.428902,7.53674541 Z" id="形状" fill="#F65982"></path>
                    <path d="M10.6564421,5.37401575 L13.3774046,5.37401575 C14.1587889,3.71784777 14.6612018,1.90813648 14.8225028,0 L3.87783434,0 C1.73993522,0 0,1.72703412 0,3.84908136 L0,14.488189 C1.12646262,14.4120735 2.22119389,14.2204724 3.27097243,13.9238845 C3.1193956,13.5855316 3.04102338,13.2193769 3.04092021,12.8490814 C3.04092021,11.3832021 4.24274476,10.1902887 5.71957427,10.1902887 C6.75480928,10.1902887 7.65254181,10.7769029 8.09810273,11.6325459 C9.68202552,10.523622 11.0517618,9.13254593 12.1385602,7.53674541 L10.6564421,7.53674541 C10.0613769,7.52754309 9.5838406,7.04610528 9.5838406,6.45538058 C9.5838406,5.86465588 10.0613769,5.38321806 10.6564421,5.37401575 Z M8.79090368,5.66535433 L6.11357176,8.2480315 C5.92734692,8.4278129 5.67790648,8.5285438 5.41812653,8.52887139 L5.40093872,8.52887139 C5.13499127,8.52438712 4.88182881,8.41480404 4.69756065,8.22440945 L3.13214782,6.60761155 C2.75004958,6.21259843 2.76194883,5.58530184 3.15991274,5.20603675 C3.55787664,4.82677165 4.18985919,4.83858268 4.57195743,5.2335958 L5.4406029,6.1312336 L7.39736894,4.24409449 C7.79268857,3.86220472 8.42599326,3.87139108 8.80941363,4.26377953 C8.99455268,4.45190013 9.09665453,4.70542039 9.09318175,4.96837957 C9.08970897,5.23133876 8.9809471,5.48211538 8.79090368,5.66535433 L8.79090368,5.66535433 Z" id="形状" fill="#FC6A90"></path>
                    <path d="M3.13214782,6.60761155 C2.75004958,6.21259843 2.76194883,5.58530184 3.15991274,5.20603675 C3.55787664,4.82677165 4.18985919,4.83858268 4.57195743,5.2335958 L4.80465393,5.47375328 C6.66490381,4.00656168 8.1880082,2.13910761 9.24175316,0 L3.87783434,0 C1.73993522,0 0,1.72703412 0,3.84908136 L0,8.07480315 C1.10795267,7.70209974 2.15905335,7.21128609 3.14272493,6.61942257 L3.13214782,6.60761155 Z" id="路径" fill="#FE7D9F"></path>
                </g>
            </g>
        </g>
    </g>
</svg>