<?xml version="1.0" encoding="UTF-8"?>
<svg width="40px" height="40px" viewBox="0 0 40 40" version="1.1" xmlns="http://www.w3.org/2000/svg" xmlns:xlink="http://www.w3.org/1999/xlink">
    <title>icon-yegl</title>
    <g id="页面-2" stroke="none" stroke-width="1" fill="none" fill-rule="evenodd">
        <g id="0-1-机构端首页" transform="translate(-126, -537)">
            <g id="icon-wyrt" transform="translate(126, 537)">
                <rect id="矩形备份" fill="#EFF4F9" x="0" y="0" width="40" height="40" rx="5"></rect>
                <g id="账号管理" transform="translate(9, 11)" fill-rule="nonzero">
                    <path d="M15.7532571,4.94139807 L21.0546286,4.94139807 C21.5763429,4.94139807 21.9987429,4.51946421 21.9987429,3.99832566 C21.9987429,3.47718711 21.5763429,3.05525324 21.0546286,3.05525324 L15.7532571,3.05525324 C15.2315429,3.05525324 14.8091429,3.47718711 14.8091429,3.99832566 C14.8091429,4.51946421 15.2328,4.94139807 15.7532571,4.94139807 L15.7532571,4.94139807 Z M21.0558857,7.86982001 L16.4773714,7.86982001 C15.9556571,7.86982001 15.5332571,8.29175387 15.5332571,8.81289242 C15.5332571,9.33403098 15.9556571,9.75596484 16.4773714,9.75596484 L21.0558857,9.75596484 C21.5776,9.75596484 22,9.33403098 22,8.81289242 C21.9987429,8.29175387 21.5763429,7.86982001 21.0558857,7.86982001 Z M21.0558857,12.9945584 L18.7666286,12.9945584 C18.2449143,12.9945584 17.8225143,13.4164923 17.8225143,13.9376308 C17.8225143,14.4587694 18.2449143,14.8807032 18.7666286,14.8807032 L21.0558857,14.8807032 C21.5776,14.8807032 22,14.4587694 22,13.9376308 C21.9987429,13.4164923 21.5763429,12.9945584 21.0558857,12.9945584 Z M11.5757714,8.28045207 C12.6393143,7.4265383 13.3219429,6.11804102 13.3219429,4.6525743 C13.3219429,2.08706572 11.2325714,0 8.66422857,0 C6.09588571,0 4.00651429,2.08706572 4.00651429,4.6525743 C4.00651429,6.11804102 4.68914286,7.4265383 5.75268571,8.28045207 C2.42125714,9.33654249 0,12.4533278 0,16.1264127 C0,17.1598995 0.841028571,18 1.87565714,18 L15.4553143,18 C16.4899429,18 17.3309714,17.1598995 17.3309714,16.1264127 C17.3284571,12.4533278 14.9072,9.33528673 11.5757714,8.28045207 Z M11.8372571,15.5738803 L5.4912,15.5738803 C4.96948571,15.5738803 4.54708571,15.1519464 4.54708571,14.6308079 C4.54708571,14.1096693 4.96948571,13.6877355 5.4912,13.6877355 L11.8372571,13.6877355 C12.3589714,13.6877355 12.7813714,14.1096693 12.7813714,14.6308079 C12.7813714,15.1519464 12.3577143,15.5738803 11.8372571,15.5738803 Z" id="形状" fill="#0DBFAA"></path>
                    <path d="M17.5924571,3.05525324 L15.7532571,3.05525324 C15.2315429,3.05525324 14.8091429,3.47718711 14.8091429,3.99832566 C14.8091429,4.51946421 15.2315429,4.94139807 15.7532571,4.94139807 L17.7986286,4.94139807 C17.776,4.29970699 17.7056,3.67057346 17.5924571,3.05525324 L17.5924571,3.05525324 Z M16.4761143,7.86982001 C15.9544,7.86982001 15.532,8.29175387 15.532,8.81289242 C15.532,9.33403098 15.9544,9.75596484 16.4761143,9.75596484 L17.0795429,9.75596484 C17.292,9.1469234 17.4604571,8.51653411 17.5824,7.86982001 L16.4761143,7.86982001 L16.4761143,7.86982001 Z M11.5757714,8.28045207 C12.6393143,7.4265383 13.3219429,6.11804102 13.3219429,4.6525743 C13.3219429,2.08706572 11.2325714,0 8.66422857,0 C6.09588571,0 4.00651429,2.08706572 4.00651429,4.6525743 C4.00651429,6.11804102 4.68914286,7.4265383 5.75268571,8.28045207 C2.42125714,9.33654249 0,12.4533278 0,16.1264127 C0,17.1598995 0.841028571,18 1.87565714,18 L8.47062857,18 C11.7492571,17.0142319 14.4848,14.7852658 16.1329143,11.8593554 C15.1045714,10.1753872 13.4916571,8.886982 11.5757714,8.28045207 Z M11.8372571,15.5738803 L5.4912,15.5738803 C4.96948571,15.5738803 4.54708571,15.1519464 4.54708571,14.6308079 C4.54708571,14.1096693 4.96948571,13.6877355 5.4912,13.6877355 L11.8372571,13.6877355 C12.3589714,13.6877355 12.7813714,14.1096693 12.7813714,14.6308079 C12.7813714,15.1506907 12.3577143,15.5738803 11.8372571,15.5738803 Z" id="形状" fill="#15C5B1"></path>
                    <path d="M0.314285714,13.8723315 C0.570742857,13.8874006 0.828457143,13.8974466 1.08868571,13.8974466 C5.51382857,13.8974466 9.4248,11.7086647 11.8045714,8.35830892 C11.7291429,8.33193805 11.6537143,8.30556718 11.5770286,8.28170783 C11.9026286,8.02051067 12.1930286,7.71536208 12.4381714,7.37630808 C12.6757714,6.96944328 12.8907429,6.55002093 13.0843429,6.11678527 C13.2377143,5.65717874 13.3219429,5.16492256 13.3219429,4.65383005 C13.3219429,2.08832147 11.2325714,0.00125575555 8.66422857,0.00125575555 C6.09588571,0.00125575555 4.00651429,2.08832147 4.00651429,4.65383005 C4.00651429,6.11929678 4.68914286,7.42779406 5.75268571,8.28170783 C3.12902857,9.11050649 1.07108571,11.2201758 0.314285714,13.8723315 Z" id="路径" fill="#17CAB6"></path>
                    <path d="M10.2457143,0.27626622 C9.75165714,0.0979489326 9.21862857,0 8.66422857,0 C6.09588571,0 4.00651429,2.08706572 4.00651429,4.6525743 C4.00651429,5.60569276 4.29691429,6.49225617 4.79097143,7.23064044 C7.3304,5.62578485 9.28022857,3.17706153 10.2457143,0.27626622 Z" id="路径" fill="#1BD2BE"></path>
                </g>
            </g>
        </g>
    </g>
</svg>