<?xml version="1.0" encoding="UTF-8"?>
<svg width="40px" height="40px" viewBox="0 0 40 40" version="1.1" xmlns="http://www.w3.org/2000/svg" xmlns:xlink="http://www.w3.org/1999/xlink">
    <title>icon-hdgl</title>
    <g id="页面-2" stroke="none" stroke-width="1" fill="none" fill-rule="evenodd">
        <g id="0-1-机构端首页" transform="translate(-292, -389)">
            <g id="编组" transform="translate(292, 389)">
                <rect id="矩形备份-6" fill="#EFF4F9" x="0" y="0" width="40" height="40" rx="5"></rect>
                <g id="案子" transform="translate(10, 10)" fill-rule="nonzero">
                    <path d="M8.67607162,9.44044172 L8.4495388,10.7548313 L9.63781877,10.1339977 C9.86570808,10.0154872 10.1383614,10.0154872 10.3662507,10.1339977 L11.5545307,10.7548313 L11.3279978,9.44044172 C11.2845903,9.18860683 11.3686923,8.93138509 11.5531742,8.75361928 L12.5149213,7.82304222 L11.185567,7.63180931 C10.9308863,7.59540712 10.7106479,7.43670833 10.596853,7.20759545 L10.002713,6.01171638 L9.40857298,7.20759545 C9.29477805,7.43670833 9.07453959,7.59540712 8.81985893,7.63180931 L7.49050461,7.82304222 L8.45225176,8.75361928 C8.63580157,8.93226245 8.71943828,9.18891335 8.67607162,9.44044172 L8.67607162,9.44044172 Z" id="路径" fill="#6591FD"></path>
                    <path d="M16.1231687,0 L3.88090071,0 C1.74308193,0 0.00406945198,1.72648307 0.00406945198,3.84889906 L0.00406945198,16.1511009 C0.00406945198,18.2735169 1.74308193,20 3.88090071,20 L16.1231687,20 C18.2609875,20 20,18.2735169 20,16.1511009 L20,3.84889906 C20,1.72648307 18.2609875,0 16.1231687,0 L16.1231687,0 Z M4.61204558,6.93286647 C4.71221817,6.62598353 4.97951348,6.40240451 5.30113945,6.35647431 L8.01953337,5.96458151 L9.23494303,3.51895495 C9.37873033,3.22941216 9.67580033,3.04625951 10,3.04625951 C10.3241997,3.04625951 10.6212697,3.22941216 10.765057,3.51895495 L11.9804666,5.96458151 L14.6988606,6.35647431 C15.0203473,6.40226247 15.2875746,6.62581644 15.3879544,6.93286647 C15.488157,7.23957458 15.4045817,7.57616395 15.1722735,7.80149485 L13.2053717,9.70574372 L13.6692892,12.3937782 C13.7235486,12.7116019 13.5919696,13.0334658 13.3301682,13.223352 C13.180955,13.3310888 13.004612,13.3849572 12.8282691,13.3849572 C12.6926207,13.3849572 12.5556158,13.3526362 12.4308193,13.2879941 L9.99864352,12.0180459 L7.56646772,13.2879941 C7.27881125,13.4385444 6.92993267,13.4134682 6.66711883,13.223352 C6.40401801,13.0336289 6.27248865,12.7118756 6.32799783,12.3937782 L6.79191536,9.70574372 L4.82501356,7.80149485 C4.59461326,7.57504626 4.51224916,7.23910945 4.61204558,6.93286647 L4.61204558,6.93286647 Z M15.7121541,17.1557471 L4.29191536,17.1557471 C3.78730331,17.1557471 3.37900163,16.7503872 3.37900163,16.2494108 C3.37900163,15.7484344 3.78730331,15.3430745 4.29191536,15.3430745 L15.7121541,15.3430745 C16.2167661,15.3430745 16.6250678,15.7484344 16.6250678,16.2494108 C16.6250678,16.7503872 16.2154097,17.1557471 15.7121541,17.1557471 Z" id="形状" fill="#467DFC"></path>
                    <path d="M20,3.84889906 C20,1.72648307 18.2609875,0 16.1231687,0 L3.88090071,0 C1.74308193,0 0.00406945198,1.72648307 0.00406945198,3.84889906 L0.00406945198,16.1511009 C0.00406945198,18.0459228 1.39039609,19.6202276 3.20808464,19.9380513 C3.43326099,19.9474783 3.65979381,19.9528651 3.88768313,19.9528651 C7.30737927,19.9528651 10.4842648,18.9212848 13.1212697,17.1557471 L4.29191536,17.1557471 C3.78730331,17.1557471 3.37900163,16.7503872 3.37900163,16.2494108 C3.37900163,15.7484344 3.78730331,15.3430745 4.29191536,15.3430745 L15.3730331,15.3430745 C17.6329354,13.1748704 19.2729246,10.3737122 20,7.2264494 L20,3.84889906 Z M15.1749864,7.80149485 L13.2080846,9.70574372 L13.6720022,12.3937782 C13.7262615,12.7116019 13.5946826,13.0334658 13.3328812,13.223352 C13.1836679,13.3310888 13.007325,13.3849572 12.8309821,13.3849572 C12.6953337,13.3849572 12.5583288,13.3526362 12.4335323,13.2879941 L10.0013565,12.0180459 L7.56918068,13.2879941 C7.28152422,13.4385444 6.93264564,13.4134682 6.6698318,13.223352 C6.40673098,13.0336289 6.27520162,12.7118756 6.3307108,12.3937782 L6.79462832,9.70574372 L4.82772653,7.80149485 C4.59483856,7.5764934 4.5111754,7.2395504 4.61204558,6.93286647 C4.71221817,6.62598353 4.97951348,6.40240451 5.30113945,6.35647431 L8.01953337,5.96458151 L9.23494303,3.51895495 C9.37859849,3.22970744 9.67516203,3.04647372 10,3.04625951 C10.3255562,3.04625951 10.6212697,3.22941216 10.765057,3.51895495 L11.9804666,5.96458151 L14.6988606,6.35647431 C15.0203473,6.40226247 15.2875746,6.62581644 15.3879544,6.93286647 C15.491881,7.23894482 15.4089786,7.57707696 15.1749864,7.80149485 L15.1749864,7.80149485 Z" id="形状" fill="#4F86FD"></path>
                    <path d="M6.32257189,12.6025183 C6.31714596,12.5338361 6.31850244,12.4638072 6.3307108,12.3937782 L6.79462832,9.70574372 L4.82772653,7.80149485 C4.59483856,7.5764934 4.5111754,7.2395504 4.61204558,6.93286647 C4.71221817,6.62598353 4.97951348,6.40240451 5.30113945,6.35647431 L8.01953337,5.96458151 L9.23494303,3.51895495 C9.37859849,3.22970744 9.67516203,3.04647372 10,3.04625951 C10.3255562,3.04625951 10.6212697,3.22941216 10.765057,3.51895495 L11.9804666,5.96458151 L13.5214324,6.18678877 C14.673239,4.29463807 15.4255002,2.18973698 15.7325014,0 L3.87683125,0 C1.73901248,0 0,1.72648307 0,3.84889906 L0,14.1108343 C2.2544764,14.0259915 4.3895822,13.4940408 6.32257189,12.6025183 L6.32257189,12.6025183 Z" id="路径" fill="#6591FD"></path>
                    <path d="M9.58898535,0 L3.88090071,0 C1.74308193,0 0.00406945198,1.72648307 0.00406945198,3.84889906 L0.00406945198,7.61295536 C4.09522518,6.38340852 7.51627781,3.62130496 9.58898535,0 Z" id="路径" fill="#6F99FC"></path>
                </g>
            </g>
        </g>
    </g>
</svg>