<?xml version="1.0" encoding="UTF-8"?>
<svg width="40px" height="40px" viewBox="0 0 40 40" version="1.1" xmlns="http://www.w3.org/2000/svg" xmlns:xlink="http://www.w3.org/1999/xlink">
    <title>icon-yywt</title>
    <g id="页面-2" stroke="none" stroke-width="1" fill="none" fill-rule="evenodd">
        <g id="0-1-机构端首页" transform="translate(-209, -763)">
            <g id="icon-yyzx备份" transform="translate(209, 763)">
                <rect id="矩形备份-6" fill="#EFF4F9" x="0" y="0" width="40" height="40" rx="5"></rect>
                <g id="保健" transform="translate(11, 8)" fill-rule="nonzero">
                    <path d="M14.9170656,4.69390541 L3.08432432,4.69390541 C2.23227799,4.69390541 1.54007722,4.01554804 1.54007722,3.17749688 L1.54007722,0.928134829 C1.54007722,0.415540117 1.96324592,0 2.48525097,0 L15.514749,0 C16.0367541,0 16.4599228,0.415540117 16.4599228,0.928134829 L16.4599228,3.17749688 C16.4599228,4.01418313 15.769112,4.69390541 14.9170656,4.69390541 Z" id="路径" fill="#F65982"></path>
                    <path d="M15.2770656,5.75716575 C16.7810039,5.75716575 18,6.9541867 18,8.431013 L18,20.3261528 C18,21.8029791 16.7810039,23 15.2770656,23 L2.72293436,23 C1.21899614,23 0,21.8029791 0,20.3261528 L0,8.431013 C0,6.9541867 1.21899614,5.75716575 2.72293436,5.75716575 Z M8.995186,10 C8.36456844,10 7.8533519,10.5077001 7.8533519,11.1339799 L7.8533519,13.4295977 L5.5418341,13.4295977 C4.91121654,13.4295977 4.4,13.9372978 4.4,14.5635776 C4.4,15.1898574 4.91121654,15.6975575 5.5418341,15.6975575 L7.8533519,15.6975575 L7.8533519,17.9931753 C7.8533519,18.6194551 8.36456844,19.1271552 8.995186,19.1271552 C9.62580355,19.1271552 10.1370201,18.6194551 10.1370201,17.9931753 L10.1370201,15.6975575 L12.4485379,15.6975575 C13.0784696,15.6975575 13.590372,15.1891762 13.590372,14.5635776 C13.590372,14.2628274 13.470072,13.9743952 13.2559365,13.7617327 C13.0418011,13.5490702 12.7513711,13.4295977 12.4485379,13.4295977 L10.1370201,13.4295977 L10.1370201,11.1339799 C10.1370201,10.5077001 9.62580355,10 8.995186,10 Z" id="形状结合" fill="#EF4D78"></path>
                    <path d="M15.2770656,5.75716575 C16.7810039,5.75716575 18,6.9541867 18,8.431013 L18,12.3578423 C15.7385328,18.5558721 9.70332046,22.9904457 2.61173745,22.9904457 L2.48525097,22.9890808 C1.09389961,22.8703341 0,21.7238146 0,20.3261528 L0,8.431013 C0,6.9541867 1.21899614,5.75716575 2.72293436,5.75716575 Z M8.995186,10 C8.36456844,10 7.8533519,10.5077001 7.8533519,11.1339799 L7.8533519,13.4295977 L5.5418341,13.4295977 C4.91121654,13.4295977 4.4,13.9372978 4.4,14.5635776 C4.4,15.1898574 4.91121654,15.6975575 5.5418341,15.6975575 L7.8533519,15.6975575 L7.8533519,17.9931753 C7.8533519,18.6194551 8.36456844,19.1271552 8.995186,19.1271552 C9.62580355,19.1271552 10.1370201,18.6194551 10.1370201,17.9931753 L10.1370201,15.6975575 L12.4485379,15.6975575 C13.0784696,15.6975575 13.590372,15.1891762 13.590372,14.5635776 C13.590372,14.2628274 13.470072,13.9743952 13.2559365,13.7617327 C13.0418011,13.5490702 12.7513711,13.4295977 12.4485379,13.4295977 L10.1370201,13.4295977 L10.1370201,11.1339799 C10.1370201,10.5077001 9.62580355,10 8.995186,10 Z" id="形状结合" fill="#F65982"></path>
                    <path d="M13.8287259,5.75716575 C13.0892664,8.23856151 11.7562934,10.4715447 9.99104247,12.2964216 L10.137,12.1403649 L10.1370201,11.1339799 C10.1370201,10.5494521 9.69169369,10.0682204 9.1196014,10.006654 L8.995186,10 C8.36456844,10 7.8533519,10.5077001 7.8533519,11.1339799 L7.8533519,13.4295977 L5.5418341,13.4295977 C4.91121654,13.4295977 4.4,13.9372978 4.4,14.5635776 C4.4,15.1073886 4.78544646,15.561793 5.29981988,15.6720358 C3.6673389,16.4553016 1.88141138,16.9782462 -3.55271368e-15,17.1868732 L-3.55271368e-15,8.431013 C-3.55271368e-15,6.9541867 1.21899614,5.75716575 2.72293436,5.75716575 Z M14.436139,0.00136490416 C14.4681081,0.410836152 14.4847876,0.825767017 14.4847876,1.24342769 C14.4847876,2.4281645 14.3527413,3.58150852 14.1039382,4.69390541 L3.60138996,4.69390541 C2.46301158,4.69390541 1.54007722,3.78760904 1.54007722,2.66975254 L1.54007722,1.24069788 C1.54007722,0.556233178 2.1051319,0.00136490416 2.80216216,0.00136490416 Z" id="形状结合" fill="#FC6A90"></path>
                    <path d="M9.74084942,0 L2.80216216,0 C2.1051319,0 1.54007722,0.554868274 1.54007722,1.23933298 L1.54007722,2.66838763 C1.54007722,3.78624414 2.46301158,4.6925405 3.60138996,4.6925405 L7.47243243,4.6925405 C8.48483815,3.26071521 9.25115511,1.67548049 9.74084942,0 L9.74084942,0 Z M0,8.431013 L0,10.5070322 C2.61312741,9.49973295 4.89822394,7.85092873 6.65374517,5.75716575 L2.72293436,5.75716575 C1.21899614,5.75716575 0,6.9541867 0,8.431013 L0,8.431013 Z" id="形状" fill="#FE7D9F"></path>
                </g>
            </g>
        </g>
    </g>
</svg>