<?xml version="1.0" encoding="UTF-8"?>
<svg width="40px" height="40px" viewBox="0 0 40 40" version="1.1" xmlns="http://www.w3.org/2000/svg" xmlns:xlink="http://www.w3.org/1999/xlink">
    <title>icon-jgsj</title>
    <g id="页面-2" stroke="none" stroke-width="1" fill="none" fill-rule="evenodd">
        <g id="0-1-机构端首页" transform="translate(-126, -389)">
            <g id="icon-yyzhhd" transform="translate(126, 389)">
                <rect id="矩形备份-5" fill="#EFF4F9" x="0" y="0" width="40" height="40" rx="5"></rect>
                <g id="行情" transform="translate(9, 10)" fill-rule="nonzero">
                    <path d="M18.8289811,0 L3.17101895,0 C1.41935484,0 0,1.4646905 0,3.27230456 L0,16.7276954 C0,18.5353095 1.41935484,20 3.17101895,20 L18.8289811,20 C20.5806452,20 22,18.5353095 22,16.7276954 L22,3.27230456 C22,1.4646905 20.5806452,0 18.8289811,0 Z M6.80811572,15.8485905 C6.80811572,16.3818657 6.38991295,16.8134263 5.87314388,16.8134263 C5.35637481,16.8134263 4.93817204,16.3818657 4.93817204,15.8485905 L4.93817204,12.8843359 C4.93817204,12.3510607 5.35637481,11.9195001 5.87314388,11.9195001 C6.38991295,11.9195001 6.80811572,12.3510607 6.80811572,12.8843359 L6.80811572,15.8485905 Z M10.264977,15.8485905 C10.264977,16.3818657 9.84677419,16.8134263 9.33000512,16.8134263 C8.81323605,16.8134263 8.39503328,16.3818657 8.39503328,15.8485905 L8.39503328,10.1147922 C8.39503328,9.581517 8.81323605,9.14995641 9.33000512,9.14995641 C9.84677419,9.14995641 10.264977,9.581517 10.264977,10.1147922 L10.264977,15.8485905 Z M13.7232463,15.8485905 C13.7232463,16.3818657 13.3050435,16.8134263 12.7882744,16.8134263 C12.2715054,16.8134263 11.8533026,16.3818657 11.8533026,15.8485905 L11.8533026,11.4283638 C11.8533026,10.8950886 12.2715054,10.463528 12.7882744,10.463528 C13.3050435,10.463528 13.7232463,10.8950886 13.7232463,11.4283638 L13.7232463,15.8485905 Z M17.1801075,15.8485905 C17.1801075,16.3818657 16.7619048,16.8134263 16.2451357,16.8134263 C15.7283666,16.8134263 15.3101639,16.3818657 15.3101639,15.8485905 L15.3101639,8.96105783 C15.3101639,8.42778262 15.7283666,7.99622203 16.2451357,7.99622203 C16.7619048,7.99622203 17.1801075,8.42778262 17.1801075,8.96105783 L17.1801075,15.8485905 Z M17.063236,5.30659692 L13.6570661,8.34205173 C13.3237356,8.63972993 12.8340094,8.65609078 12.4827189,8.38128451 L9.44969278,6.01859924 L6.28993856,8.93344958 C5.90481582,9.28336934 5.31830749,9.24733977 4.97613347,8.85274172 C4.63395945,8.45814367 4.66415765,7.85263158 5.0437788,7.49636734 L8.7766257,4.05260099 C9.1093899,3.74574931 9.60594337,3.72444944 9.96223758,4.00174368 L13.0065284,6.37314734 L15.8410138,3.84626562 C16.0284699,3.67897647 16.2726558,3.59540139 16.5198346,3.6139324 C16.7670133,3.63246341 16.9969294,3.75158195 17.1589862,3.94507411 C17.4969278,4.34902645 17.4546851,4.95786109 17.063236,5.30659692 L17.063236,5.30659692 Z" id="形状" fill="#467DFC"></path>
                    <path d="M3.17101895,0 C1.41935484,0 0,1.4646905 0,3.27230456 L0,16.7276954 C0,18.5353095 1.41935484,20 3.17101895,20 L8.51331285,20 C11.0999744,19.2909038 13.437404,17.9540831 15.3650794,16.1551874 C15.3341014,16.057832 15.31298,15.9561174 15.31298,15.8485905 L15.31298,8.96105783 C15.31298,8.42778262 15.7311828,7.99622203 16.2479519,7.99622203 C16.7647209,7.99622203 17.1829237,8.42778262 17.1829237,8.96105783 L17.1829237,14.1644871 C19.4612135,11.2351061 20.8242448,7.51525719 20.8242448,3.46846847 C20.8242448,2.47166521 20.7411674,1.49520488 20.5820533,0.546352804 C20.0636718,0.190142465 19.4545902,0.000519694222 18.8317972,0.00145306597 L3.17101895,0.00145306597 L3.17101895,0 Z M6.80811572,15.8485905 C6.80811572,16.3818657 6.38991295,16.8134263 5.87314388,16.8134263 C5.35637481,16.8134263 4.93817204,16.3818657 4.93817204,15.8485905 L4.93817204,12.8843359 C4.93817204,12.3510607 5.35637481,11.9195001 5.87314388,11.9195001 C6.38991295,11.9195001 6.80811572,12.3510607 6.80811572,12.8843359 L6.80811572,15.8485905 Z M10.264977,15.8485905 C10.264977,16.3818657 9.84677419,16.8134263 9.33000512,16.8134263 C8.81323605,16.8134263 8.39503328,16.3818657 8.39503328,15.8485905 L8.39503328,10.1147922 C8.39503328,9.581517 8.81323605,9.14995641 9.33000512,9.14995641 C9.84677419,9.14995641 10.264977,9.581517 10.264977,10.1147922 L10.264977,15.8485905 Z M13.7232463,15.8485905 C13.7232463,16.3818657 13.3050435,16.8134263 12.7882744,16.8134263 C12.2715054,16.8134263 11.8533026,16.3818657 11.8533026,15.8485905 L11.8533026,11.4283638 C11.8533026,10.8950886 12.2715054,10.463528 12.7882744,10.463528 C13.3050435,10.463528 13.7232463,10.8950886 13.7232463,11.4283638 L13.7232463,15.8485905 Z M17.063236,5.30659692 L13.6570661,8.34205173 C13.3237356,8.63972993 12.8340094,8.65609078 12.4827189,8.38128451 L9.44969278,6.01859924 L6.28993856,8.93344958 C5.90481582,9.28336934 5.31830749,9.24733977 4.97613347,8.85274172 C4.63395945,8.45814367 4.66415765,7.85263158 5.0437788,7.49636734 L8.7766257,4.05260099 C9.1093899,3.74574931 9.60594337,3.72444944 9.96223758,4.00174368 L13.0065284,6.37314734 L15.8410138,3.84626562 C16.0284699,3.67897647 16.2726558,3.59540139 16.5198346,3.6139324 C16.7670133,3.63246341 16.9969294,3.75158195 17.1589862,3.94507411 C17.4969278,4.34902645 17.4546851,4.95786109 17.063236,5.30659692 L17.063236,5.30659692 Z" id="形状" fill="#4F86FD"></path>
                    <path d="M0,3.27230456 L0,14.494333 C1.7235023,14.4638187 3.38223246,14.163034 4.93817204,13.6297588 L4.93817204,12.8843359 C4.93817204,12.3510607 5.35637481,11.9195001 5.87314388,11.9195001 C6.38005632,11.9195001 6.79121864,12.3365301 6.80529954,12.8567277 C7.35304659,12.5893636 7.88389657,12.291485 8.39644137,11.9645452 L8.39644137,10.1147922 C8.39644137,9.581517 8.81464414,9.14995641 9.33141321,9.14995641 C9.84818228,9.14995641 10.266385,9.581517 10.266385,10.1147922 L10.266385,10.5841325 C11.0563236,9.90990991 11.7843062,9.16158094 12.4418843,8.34931706 L9.44969278,6.01859924 L6.28993856,8.93344958 C5.90481582,9.28336934 5.31830749,9.24733977 4.97613347,8.85274172 C4.63395945,8.45814367 4.66415765,7.85263158 5.0437788,7.49636734 L8.7766257,4.05260099 C9.1093899,3.74574931 9.60594337,3.72444944 9.96223758,4.00174368 L13.0065284,6.37314734 L14.5709165,4.97820401 C15.3115719,3.43650102 15.8339734,1.76256902 16.0958781,3.22645459e-15 L3.17101895,3.22645459e-15 C1.42076293,3.22645459e-15 0,1.4646905 0,3.27230456 Z" id="路径" fill="#6591FD"></path>
                    <path d="M0,3.27230456 L0,7.81894798 C4.17639529,6.61871549 7.68817204,3.77215926 9.83832565,1.6132273e-15 L3.17101895,1.6132273e-15 C1.42076293,1.6132273e-15 0,1.4646905 0,3.27230456 Z" id="路径" fill="#6F99FC"></path>
                </g>
            </g>
        </g>
    </g>
</svg>