<?xml version="1.0" encoding="UTF-8"?>
<svg width="40px" height="40px" viewBox="0 0 40 40" version="1.1" xmlns="http://www.w3.org/2000/svg" xmlns:xlink="http://www.w3.org/1999/xlink">
    <title>icon-wsbjgl</title>
    <g id="页面-2" stroke="none" stroke-width="1" fill="none" fill-rule="evenodd">
        <g id="0-1-机构端首页" transform="translate(-43, -389)">
            <g id="icon-vrykt" transform="translate(43, 389)">
                <rect id="矩形备份-4" fill="#EFF4F9" x="0" y="0" width="40" height="40" rx="5"></rect>
                <g id="卡券包" transform="translate(10, 10)" fill-rule="nonzero">
                    <path d="M13.756951,14.6198287 C13.3242913,16.3503553 11.7279262,17.6386214 9.8291062,17.6386214 C7.93028618,17.6386214 6.33392106,16.3503553 5.90126136,14.6198287 L0,14.6198287 L0,17.633309 C0,18.9401687 1.08232741,20 2.41692662,20 L17.5817171,20 C18.9163163,20 19.9986437,18.9401687 19.9986437,17.633309 L19.9986437,14.6198287 L13.756951,14.6198287 Z" id="路径" fill="#467DFC"></path>
                    <path d="M17.5830734,0.00132810944 C18.9176726,0.00132810944 20,1.06115944 20,2.36801912 L20,12.7392257 L12.9119761,12.7392257 C12.3816389,12.7392257 11.9517157,13.160213 11.9517157,13.6795272 C11.9517157,14.8256856 10.9995931,15.7580185 9.8291062,15.7580185 C8.65861929,15.7580185 7.70649668,14.8256856 7.70649668,13.6795272 C7.70649668,13.160213 7.27657345,12.7392257 6.74623627,12.7392257 L0,12.7392257 L0,2.36801912 C0,1.06115944 1.08232741,0.00132810944 2.41692662,0.00132810944 Z M9.995186,3 C9.36456844,3 8.8533519,3.50770009 8.8533519,4.13397989 L8.8533519,6.4295977 L6.5418341,6.4295977 C5.91121654,6.4295977 5.4,6.93729779 5.4,7.56357759 C5.4,8.18985738 5.91121654,8.69755747 6.5418341,8.69755747 L8.8533519,8.69755747 L8.8533519,10.9931753 C8.8533519,11.6194551 9.36456844,12.1271552 9.995186,12.1271552 C10.6258036,12.1271552 11.1370201,11.6194551 11.1370201,10.9931753 L11.1370201,8.69755747 L13.4485379,8.69755747 C14.0784696,8.69755747 14.590372,8.18917625 14.590372,7.56357759 C14.590372,7.26282742 14.470072,6.9743952 14.2559365,6.76173272 C14.0418011,6.54907024 13.7513711,6.4295977 13.4485379,6.4295977 L11.1370201,6.4295977 L11.1370201,4.13397989 C11.1370201,3.50770009 10.6258036,3 9.995186,3 Z" id="形状结合" fill="#467DFC"></path>
                    <path d="M17.5830734,0.00132810944 C18.9176726,0.00132810944 20,1.06115944 20,2.36801912 L20,6.06946012 C19.5741218,8.54107178 18.5514716,10.813467 17.0812424,12.7392257 L12.9119761,12.7392257 C12.3816389,12.7392257 11.9517157,13.160213 11.9517157,13.6795272 C11.9517157,14.8256856 10.9995931,15.7580185 9.8291062,15.7580185 C8.65861929,15.7580185 7.70649668,14.8256856 7.70649668,13.6795272 C7.70649668,13.160213 7.27657345,12.7392257 6.74623627,12.7392257 L0,12.7392257 L0,2.36801912 C0,1.06115944 1.08232741,0.00132810944 2.41692662,0.00132810944 Z M9.995186,3 C9.36456844,3 8.8533519,3.50770009 8.8533519,4.13397989 L8.8533519,6.4295977 L6.5418341,6.4295977 C5.91121654,6.4295977 5.4,6.93729779 5.4,7.56357759 C5.4,8.18985738 5.91121654,8.69755747 6.5418341,8.69755747 L8.8533519,8.69755747 L8.8533519,10.9931753 C8.8533519,11.6194551 9.36456844,12.1271552 9.995186,12.1271552 C10.6258036,12.1271552 11.1370201,11.6194551 11.1370201,10.9931753 L11.1370201,8.69755747 L13.4485379,8.69755747 C14.0784696,8.69755747 14.590372,8.18917625 14.590372,7.56357759 C14.590372,7.26282742 14.470072,6.9743952 14.2559365,6.76173272 C14.0418011,6.54907024 13.7513711,6.4295977 13.4485379,6.4295977 L11.1370201,6.4295977 L11.1370201,4.13397989 C11.1370201,3.50770009 10.6258036,3 9.995186,3 Z" id="形状结合" fill="#4F86FD"></path>
                    <path d="M15.3858674,14.6198287 L13.756951,14.6198287 C13.3242913,16.3503553 11.7279262,17.6386214 9.8291062,17.6386214 C7.93028618,17.6386214 6.33392106,16.3503553 5.90126136,14.6198287 L0,14.6198287 L0,17.633309 C0,17.8962747 0.0461142005,18.1486154 0.127492201,18.386347 C1.48921741,18.7608739 2.92418283,18.9614184 4.40797504,18.9614184 C8.67218229,18.9600903 12.5417062,17.3065941 15.3858674,14.6198287 L15.3858674,14.6198287 Z" id="路径" fill="#4F86FD"></path>
                    <path d="M15.7615625,0 C15.4645328,2.22192709 15.2837978,3.32389175 13.5345178,6.11727206 C13.4677051,6.22396367 13.4012995,6.3279768 13.3352966,6.42940814 L11.1370201,6.4295977 L11.1370201,4.13397989 C11.1370201,3.50770009 10.6258036,3 9.995186,3 C9.36456844,3 8.8533519,3.50770009 8.8533519,4.13397989 L8.8533519,6.4295977 L6.5418341,6.4295977 C5.91121654,6.4295977 5.4,6.93729779 5.4,7.56357759 C5.4,8.18985738 5.91121654,8.69755747 6.5418341,8.69755747 L8.8533519,8.69755747 L8.85469927,10.8514565 C7.63532303,11.6496323 6.29163492,12.2962288 4.86504815,12.7378976 L0,12.7378976 L0,2.36669102 C0,1.05983133 1.08232741,0 2.41692662,0 Z" id="形状结合" fill="#6591FD"></path>
                    <path d="M6.65943307,4.0254997 C8.52977079,2.38130022 9.34083819,1.055847 9.9389665,0.00132810944 L2.41692662,0.00132810944 C1.08232741,0.00132810944 0,1.06115944 0,2.36801912 L0,7.50647453 C2.51458023,6.8822631 4.78909535,5.66969918 6.65943307,4.0254997 Z" id="路径" fill="#6F99FC"></path>
                </g>
            </g>
        </g>
    </g>
</svg>