<?xml version="1.0" encoding="UTF-8"?>
<svg width="40px" height="40px" viewBox="0 0 40 40" version="1.1" xmlns="http://www.w3.org/2000/svg" xmlns:xlink="http://www.w3.org/1999/xlink">
    <title>icon-cjjl</title>
    <g id="页面-2" stroke="none" stroke-width="1" fill="none" fill-rule="evenodd">
        <g id="0-1-机构端首页" transform="translate(-126, -684)">
            <g id="icon-wyrt备份" transform="translate(126, 684)">
                <rect id="矩形备份" fill="#EFF4F9" x="0" y="0" width="40" height="40" rx="5"></rect>
                <g id="订单查询" transform="translate(11, 9)" fill-rule="nonzero">
                    <path d="M15.0094363,0 L3.30848746,0 C1.48094201,0 0,1.48832843 0,3.32498905 L0,18.675011 C0,20.5116716 1.48094201,22 3.30848746,22 L11.5612115,22 C9.89943288,20.7897866 8.81578336,18.8250829 8.81578336,16.6098004 C8.81578336,12.9392327 11.7872572,9.95431504 15.4382382,9.95431504 C16.4698287,9.95431504 17.4466202,10.1925027 18.3179247,10.617936 L18.3179247,3.32636586 C18.3192937,1.48970524 16.8369817,0 15.0094363,0 L15.0094363,0 Z M6.93754886,14.8461105 L4.88121773,14.8461105 C4.22089022,14.8461105 3.68523034,14.307779 3.68523034,13.644158 C3.68523034,12.980537 4.22089022,12.4422054 4.88121773,12.4422054 L6.93891884,12.4422054 C7.59924636,12.4422054 8.13490623,12.980537 8.13490623,13.644158 C8.13490623,14.307779 7.59924636,14.8461105 6.93754886,14.8461105 Z M10.0336903,10.5725014 L4.88121773,10.5725014 C4.22089022,10.5725014 3.68523034,10.0341698 3.68523034,9.37054885 C3.68523034,8.70692784 4.22089022,8.16859628 4.88121773,8.16859628 L10.0336903,8.16859628 C10.6940179,8.16859628 11.2296777,8.70692784 11.2296777,9.37054885 C11.2296777,10.0341698 10.6940179,10.5725014 10.0336903,10.5725014 Z M13.4243762,6.48751486 L4.88121773,6.48751486 C4.22089022,6.48751486 3.68523034,5.9491833 3.68523034,5.2855623 C3.68523034,4.6219413 4.22089022,4.08360974 4.88121773,4.08360974 L13.4243762,4.08360974 C14.0847038,4.08360974 14.6203636,4.6219413 14.6203636,5.2855623 C14.6203636,5.9491833 14.0847038,6.48751486 13.4243762,6.48751486 L13.4243762,6.48751486 Z" id="形状" fill="#EF4D78"></path>
                    <path d="M20.63455,19.8976156 L19.4084231,18.7080543 C19.747978,18.0618138 19.925279,17.341983 19.9249034,16.6111772 C19.9249034,14.1246636 17.9124114,12.1021341 15.4382382,12.1021341 C12.964065,12.1021341 10.951573,14.1246636 10.951573,16.6111772 C10.951573,19.0976907 12.964065,21.1202203 15.4382382,21.1202203 C16.291732,21.1202203 17.090427,20.8792791 17.7699341,20.4621065 L18.9727714,21.6282621 C19.1951498,21.8451991 19.4930604,21.9662423 19.8029757,21.9655825 C20.1166997,21.9655825 20.4290538,21.843044 20.6633194,21.5979723 C21.1236307,21.1202203 21.109931,20.358846 20.63455,19.8976156 L20.63455,19.8976156 Z M15.4382382,18.7149384 C14.28335,18.7149384 13.3449178,17.7704487 13.3449178,16.6111772 C13.3449178,15.4505288 14.28472,14.507416 15.4382382,14.507416 C16.5931264,14.507416 17.5315586,15.4519056 17.5315586,16.6111772 C17.5315586,17.7718255 16.5931264,18.7149384 15.4382382,18.7149384 Z" id="形状" fill="#EF4D78"></path>
                    <path d="M18.3192937,3.32636586 C18.3192937,1.48970524 16.8383517,0.00137680706 15.0108063,0.00137680706 L3.30848746,0.00137680706 C1.48094201,0.00137680706 0,1.48970524 0,3.32636586 L0,18.6763878 C0,19.8246448 0.579499046,20.8379748 1.46176237,21.4355091 C2.27963691,21.5566681 3.11669109,21.6200013 3.96744501,21.6200013 C6.11693438,21.6200013 8.17189553,21.2207272 10.0665697,20.4937731 C9.28157456,19.4005883 8.81578336,18.060955 8.81578336,16.612554 C8.81578336,12.9419864 11.7872572,9.95706865 15.4382382,9.95706865 C16.4698287,9.95706865 17.4466202,10.1952563 18.3179238,10.6206897 L18.3179238,3.32636586 L18.3192937,3.32636586 Z M6.93754886,14.8461105 L4.88121773,14.8461105 C4.22089022,14.8461105 3.68523034,14.307779 3.68523034,13.644158 C3.68523034,12.980537 4.22089022,12.4422054 4.88121773,12.4422054 L6.93891884,12.4422054 C7.59924636,12.4422054 8.13490623,12.980537 8.13490623,13.644158 C8.13490623,14.307779 7.59924636,14.8461105 6.93754886,14.8461105 Z M10.0336903,10.5725014 L4.88121773,10.5725014 C4.22089022,10.5725014 3.68523034,10.0341698 3.68523034,9.37054885 C3.68523034,8.70692784 4.22089022,8.16859628 4.88121773,8.16859628 L10.0336903,8.16859628 C10.6940179,8.16859628 11.2296777,8.70692784 11.2296777,9.37054885 C11.2296777,10.0341698 10.6940179,10.5725014 10.0336903,10.5725014 Z M13.4243762,6.48751486 L4.88121773,6.48751486 C4.22089022,6.48751486 3.68523034,5.9491833 3.68523034,5.2855623 C3.68523034,4.6219413 4.22089022,4.08360974 4.88121773,4.08360974 L13.4243762,4.08360974 C14.0847038,4.08360974 14.6203636,4.6219413 14.6203636,5.2855623 C14.6203636,5.9491833 14.0847038,6.48751486 13.4243762,6.48751486 L13.4243762,6.48751486 Z" id="形状" fill="#F65982"></path>
                    <path d="M15.4382382,12.1021341 C12.964065,12.1021341 10.951573,14.1246636 10.951573,16.6111772 C10.951573,17.7456662 11.3707851,18.7824019 12.061252,19.5754428 C12.7845983,19.1844296 13.4764353,18.7424745 14.1326529,18.253708 C13.6531619,17.868202 13.3449178,17.276175 13.3449178,16.6111772 C13.3449178,15.4505288 14.28472,14.507416 15.4382382,14.507416 C16.1396649,14.507416 16.7602632,14.857125 17.141116,15.3913261 C17.6630761,14.7593717 18.1398271,14.0888666 18.567259,13.3839414 C17.7589743,12.5922774 16.6547752,12.1021341 15.4382382,12.1021341 Z" id="路径" fill="#F65982"></path>
                    <path d="M15.0094363,0 L3.30848746,0 C1.48094201,0 0,1.48832843 0,3.32498905 L0,15.5000939 C1.5234112,15.4381376 2.99476339,15.1765442 4.38939703,14.7387196 C3.96093029,14.5447656 3.68536607,14.1164267 3.68523034,13.644158 C3.68523034,12.980537 4.22089022,12.4422054 4.88121773,12.4422054 L6.93891884,12.4422054 C7.41018993,12.4422054 7.81707224,12.71619 8.01160856,13.115464 C12.5078636,10.4306903 15.6752437,5.73164779 16.2821422,0.25746292 C15.8903296,0.0908692659 15.4601578,0 15.0094363,0 L15.0094363,0 Z M10.0336903,10.5725014 L4.88121773,10.5725014 C4.22089022,10.5725014 3.68523034,10.0341698 3.68523034,9.37054885 C3.68523034,8.70692784 4.22089022,8.16859628 4.88121773,8.16859628 L10.0336903,8.16859628 C10.6940179,8.16859628 11.2296777,8.70692784 11.2296777,9.37054885 C11.2296777,10.0341698 10.6940179,10.5725014 10.0336903,10.5725014 Z M13.4243762,6.48751486 L4.88121773,6.48751486 C4.22089022,6.48751486 3.68523034,5.9491833 3.68523034,5.2855623 C3.68523034,4.6219413 4.22089022,4.08360974 4.88121773,4.08360974 L13.4243762,4.08360974 C14.0847038,4.08360974 14.6203636,4.6219413 14.6203636,5.2855623 C14.6203636,5.9491833 14.0847038,6.48751486 13.4243762,6.48751486 L13.4243762,6.48751486 Z" id="形状" fill="#FC6A90"></path>
                    <path d="M4.60996286,6.4558483 C4.07978288,6.33193567 3.68386037,5.85556042 3.68386037,5.2855623 C3.68386037,4.6219413 4.21952024,4.08360974 4.87984776,4.08360974 L7.3855304,4.08360974 C8.53305129,2.86944964 9.49851124,1.49381071 10.2515162,0 L3.30848746,0 C1.48094201,0 0,1.48832843 0,3.32498905 L0,8.68352212 C1.65766867,8.17410351 3.20847935,7.41685963 4.60996286,6.4558483 Z" id="路径" fill="#FE7D9F"></path>
                </g>
            </g>
        </g>
    </g>
</svg>