<?xml version="1.0" encoding="UTF-8"?>
<svg width="40px" height="40px" viewBox="0 0 40 40" version="1.1" xmlns="http://www.w3.org/2000/svg" xmlns:xlink="http://www.w3.org/1999/xlink">
    <title>默认logo</title>
    <g id="页面-2" stroke="none" stroke-width="1" fill="none" fill-rule="evenodd">
        <g id="0-0-3-选择机构" transform="translate(-32, -169)">
            <g id="默认logo" transform="translate(32, 169)">
                <circle id="椭圆形" fill="#FF5F3D" cx="20" cy="20" r="20"></circle>
                <g id="icon/tab/shouye-2" transform="translate(9.9048, 8.8188)">
                    <path d="M13.4603175,8.90164789 L16.5775937,8.90164789 C16.8196487,8.90164789 17.015873,9.09787221 17.015873,9.33992718 C17.015873,9.58198214 17.2120973,9.77820646 17.4541523,9.77820646 L18.9239129,9.77820646 C19.0834387,9.77820646 19.2307284,9.69270992 19.3098458,9.55418577 L19.5545913,9.12566859 C19.6337087,8.98714443 19.7809984,8.90164789 19.9405243,8.90164789 L20.6043321,8.90164789 C21.0440817,8.90164789 21.4177382,9.22319759 21.4832897,9.65803402 L22.8214299,18.5345926 C22.8946091,19.0200275 22.5604099,19.4728737 22.074975,19.546053 C22.0311171,19.5526645 21.9868258,19.5559842 21.9424723,19.5559842 L13.4603175,19.5559842 C12.9693977,19.5559842 12.5714286,19.1580151 12.5714286,18.6670953 L12.5714286,9.79053678 C12.5714286,9.299617 12.9693977,8.90164789 13.4603175,8.90164789 Z" id="Combined-Shape" fill="#FF9F8B"></path>
                    <path d="M3.1244064,4.92049961 C3.32749342,4.92049961 3.50474791,5.0581615 3.55501919,5.2549282 L3.83194221,6.33883192 C3.88221349,6.53559862 4.05946798,6.67326051 4.262555,6.67326051 L5.60080409,6.67326051 C5.93196196,6.67326051 6.23566437,6.48917047 6.38886039,6.19557805 L6.80494026,5.39818207 C6.95813628,5.10458965 7.26183869,4.92049961 7.59299655,4.92049961 L11.8072961,4.92049961 C12.1404278,4.92049961 12.4455951,5.10676875 12.5978772,5.40305725 L13.0026997,6.19070287 C13.1549817,6.48699137 13.4601491,6.67326051 13.7932807,6.67326051 L15.1271268,6.67326051 C15.3305121,6.67326051 15.5079471,6.53520201 15.5579371,6.33805587 L15.832387,5.25570425 C15.882377,5.05855811 16.059812,4.92049961 16.2631974,4.92049961 L16.8018862,4.92049961 C17.2676325,4.92049961 17.6544072,5.28000111 17.6884039,5.74450495 L18.6642603,19.0778383 C18.7000945,19.5674485 18.3322364,19.9934053 17.8426262,20.0292395 L17.8102061,20.0310177 L13.2867681,20.0316107 L13.1614071,20.0255071 C12.4852721,19.9608984 11.9564827,19.3913406 11.9564827,18.6982774 C11.9564827,18.6861891 11.9566436,18.6741383 11.9569633,18.6621272 L11.9481847,16.4760552 C11.9481847,15.0032958 10.7542774,13.8093885 9.28151803,13.8093885 C7.8087587,13.8093885 6.61485136,15.0032958 6.61485136,16.4760552 L6.61485136,18.7924709 C6.5577661,19.4851181 5.98083714,20.0316107 5.27626799,20.0316107 L0.888888889,20.0316107 C0.397969111,20.0316107 9.48298753e-16,19.6336416 8.8817842e-16,19.1427218 C8.85527119e-16,19.1210723 0.000790933275,19.09943 0.00237121739,19.0778383 L0.978227664,5.74450495 C1.01222434,5.28000111 1.39899906,4.92049961 1.86474534,4.92049961 L3.1244064,4.92049961 Z M8.55721711,0.265213459 C8.6562653,0.0406249144 8.9186247,-0.0611456564 9.14321325,0.0379025269 L12.6337527,1.57730246 C12.735231,1.62205651 12.8163096,1.70313504 12.8610636,1.80461339 C12.9601118,2.02920194 12.8583412,2.29156134 12.6337527,2.39060953 L9.14321325,3.93000946 C9.08670724,3.95492977 9.02562784,3.96780037 8.96387065,3.96780037 C8.71841076,3.96780037 8.5194262,3.76881582 8.5194262,3.52335593 L8.5194262,0.44455606 C8.5194262,0.382798869 8.5322968,0.321719464 8.55721711,0.265213459 Z" id="Combined-Shape" fill="#FFFFFF"></path>
                </g>
            </g>
        </g>
    </g>
</svg>