<?xml version="1.0" encoding="UTF-8"?>
<svg width="42px" height="42px" viewBox="0 0 42 42" version="1.1" xmlns="http://www.w3.org/2000/svg" xmlns:xlink="http://www.w3.org/1999/xlink">
    <title>icon-czfypg</title>
    <g id="页面-2" stroke="none" stroke-width="1" fill="none" fill-rule="evenodd">
        <g id="5-0-卫生保健管理" transform="translate(-257, -330)" fill="#287CFF" fill-rule="nonzero">
            <g id="编辑" transform="translate(257, 330)">
                <path d="M28.7,24.64 L28.7,26.096 C28.7,26.9001266 28.0731986,27.552 27.3,27.552 L14.7,27.552 C13.9268014,27.552 13.3,26.9001266 13.3,26.096 L13.3,24.64 L28.7,24.64 L28.7,24.64 Z" id="路径"></path>
                <path d="M25.2,2.8 C25.9514688,2.80184842 26.5674999,3.42037324 26.5957025,4.20135241 C26.6239051,4.98233159 26.0542186,5.64716885 25.305,5.70763201 L25.2,5.71200001 L8.40000001,5.71200001 L8.40000001,36.288 L33.6,36.288 L33.6,14.65548 C33.5966204,13.8700923 34.192801,13.2234579 34.9474573,13.1939894 C35.7021136,13.164521 36.3432405,13.76284 36.3965,14.54628 L36.4,14.65548 L36.4,36.288 C36.4,37.8396602 35.2301148,39.118777 33.74,39.19636 L33.6,39.2 L8.40000001,39.2 C6.90801904,39.2 5.67809907,37.9833194 5.60350003,36.4336 L5.6,36.288 L5.6,5.71200001 C5.6,4.1603398 6.76988519,2.88122303 8.26000002,2.80364003 L8.40000001,2.8 L25.2,2.8 Z" id="路径"></path>
                <path d="M33.677,3.92112001 C34.2197878,3.38196096 35.0748397,3.38390735 35.6153529,3.92553238 C36.1558661,4.46715741 36.1895004,5.35572525 35.6916,5.93986403 L35.6076,6.030136 L21.2646,20.218856 C20.7206721,20.7502785 19.8715413,20.7445433 19.334296,20.2058185 C18.7970507,19.6670937 18.7605852,18.7847938 19.2514,18.200112 L19.3354,18.109112 L33.677,3.92112001 Z" id="路径"></path>
            </g>
        </g>
    </g>
</svg>