<?xml version="1.0" encoding="UTF-8"?>
<svg width="42px" height="42px" viewBox="0 0 42 42" version="1.1" xmlns="http://www.w3.org/2000/svg" xmlns:xlink="http://www.w3.org/1999/xlink">
    <title>icon-tcsj</title>
    <g id="页面-2" stroke="none" stroke-width="1" fill="none" fill-rule="evenodd">
        <g id="5-0-卫生保健管理" transform="translate(-257, -178)" fill="#287CFF" fill-rule="nonzero">
            <g id="检查" transform="translate(257, 178)">
                <path d="M14.6995424,24.2117706 C15.4321515,24.2115343 16.041043,24.7872637 16.0959887,25.5321623 L16.0994885,25.6392211 L16.0994885,28.3920592 C16.0994885,32.7550614 19.7169494,36.3450992 24.1491789,36.3450992 C28.5121111,36.3450992 32.0854737,32.8656888 32.1960695,28.5961846 L32.1988694,28.3920592 C32.1954899,27.6220715 32.7916476,26.9881165 33.5462748,26.9592259 C34.3009021,26.9303353 34.9420044,27.5169223 34.9952618,28.2850004 L34.9987617,28.3920592 C34.9987617,34.3473823 30.1115497,39.2 24.1491789,39.2 C18.2617054,39.2 13.4220915,34.4687156 13.3016961,28.6154552 L13.2995962,28.3913455 L13.2995962,25.6392211 C13.2995962,24.850862 13.9263734,24.2117706 14.6995424,24.2117706 Z" id="路径"></path>
                <path d="M8.39978463,2.8 C9.15493609,2.79656873 9.77667606,3.40443886 9.80501,4.17389203 C9.83334394,4.94334521 9.25805929,5.59704295 8.50478059,5.65134676 L8.39978463,5.65491537 L5.5998923,5.65491537 L5.5998923,14.933343 C5.5998923,20.0329096 9.69823467,24.2117707 14.6995424,24.2117707 C19.6294528,24.2117707 23.6815969,20.1521017 23.7963925,15.1510292 L23.7991924,14.933343 L23.7991924,5.65491537 L20.9993001,5.65491537 C20.2441486,5.65836122 19.6224087,5.05049109 19.5940747,4.28103791 C19.5657408,3.51158474 20.1410254,2.85788699 20.8943041,2.80358319 L20.9993001,2.8 L23.7991924,2.8 C25.291116,2.8 26.5209887,3.99283819 26.5955849,5.51217034 L26.5990847,5.65491537 L26.5990847,14.933343 C26.5990847,21.6102423 21.2477905,27.0666715 14.6995424,27.0666715 C8.22689127,27.0666715 2.92319525,21.7351442 2.80209992,15.1631626 L2.8,14.933343 L2.8,5.65491537 C2.8,4.13368049 3.96984018,2.87964495 5.45989769,2.80358319 L5.5998923,2.8 L8.39978463,2.8 Z" id="路径"></path>
                <path d="M33.5988155,17.7882439 C31.5979551,17.7884988 29.7492171,18.8771525 28.7490035,20.6441196 C27.7487898,22.4110867 27.7490566,24.5879229 28.7497034,26.354635 C29.7503502,28.1213472 31.599355,29.2095296 33.6002155,29.2092746 C36.6932777,29.2088803 39.2003866,26.651876 39.2,23.4980455 C39.1996134,20.344215 36.6918777,17.7878498 33.5988155,17.7882439 Z M33.5988155,20.6431446 C35.14554,20.6435388 36.3990945,21.9223606 36.398708,23.4994729 C36.3983213,25.0765853 35.14414,26.3547679 33.5974156,26.3543738 C32.0506912,26.3539796 30.7971367,25.0751578 30.7975232,23.4980455 C30.7979099,21.9209331 32.0520911,20.6427505 33.5988155,20.6431446 L33.5988155,20.6431446 Z" id="形状"></path>
            </g>
        </g>
    </g>
</svg>