<?xml version="1.0" encoding="UTF-8"?>
<svg width="42px" height="42px" viewBox="0 0 42 42" version="1.1" xmlns="http://www.w3.org/2000/svg" xmlns:xlink="http://www.w3.org/1999/xlink">
    <title>icon-mzjl</title>
    <g id="页面-2" stroke="none" stroke-width="1" fill="none" fill-rule="evenodd">
        <g id="5-0-卫生保健管理" transform="translate(-76, -178)" fill="#287CFF" fill-rule="nonzero">
            <g id="记录" transform="translate(76, 178)">
                <path d="M13.3,5.59998567 C14.0551808,5.59662005 14.676945,6.1928007 14.70528,6.94745725 C14.7336151,7.70211379 14.1583079,8.3432408 13.405,8.3965 L13.3,8.39999999 L8.40000001,8.39999999 L8.40000001,36.4 L33.6,36.4 L33.6,8.39999999 L29.05,8.39999999 C28.2948195,8.40337958 27.6730556,7.80719902 27.6447206,7.05254272 C27.6163856,6.29788641 28.1916923,5.65675952 28.945,5.6035 L29.05,5.59998567 L33.6,5.59998567 C35.091981,5.59998567 36.3219009,6.76988517 36.3965,8.26 L36.4,8.39999999 L36.4,36.4 C36.4,37.891981 35.2301148,39.121901 33.74,39.1965 L33.6,39.2 L8.40000001,39.2 C6.90801905,39.2 5.67809909,38.0301148 5.60350003,36.54 L5.6,36.4 L5.6,8.39999999 C5.6,6.90801901 6.76988519,5.67809904 8.26000002,5.6035 L8.40000001,5.59998567 L13.3,5.59998567 Z" id="路径"></path>
                <path d="M25.9,2.8 L16.1,2.8 C13.7865,2.8 11.9,4.68650002 11.9,7 C11.9,9.31349999 13.7865,11.2 16.1,11.2 L25.9,11.2 C28.2135,11.2 30.1,9.31349999 30.1,7 C30.1,4.68650002 28.2135,2.8 25.9,2.8 L25.9,2.8 Z M16.1,5.59999997 L25.9,5.59999997 C26.6665,5.59999997 27.3,6.23349996 27.3,7 C27.3,7.76650004 26.6665,8.39999999 25.9,8.39999999 L16.1,8.39999999 C15.3335,8.39999999 14.7,7.7665 14.7,7 C14.7,6.2335 15.3335,5.59999997 16.1,5.59999997 Z" id="形状"></path>
                <path d="M20.3763,14.7 C24.6708,14.7 28.1519,18.1811 28.1519,22.4756 C28.1519,24.1171 27.643,25.6396 26.775,26.8947 L29.6898,29.8095 L27.7102,31.7898 L24.7954,28.8743 C23.4973007,29.7732873 21.9552976,30.2537435 20.3763,30.2512 C16.0818,30.2512 12.6,26.7701 12.6,22.4756 C12.6,18.1811 16.0818,14.7 20.3763,14.7 Z M20.3763,17.5 C18.5985643,17.4998749 16.955802,18.4481701 16.0668258,19.9876719 C15.1778496,21.5271736 15.1777162,23.4239951 16.0664758,24.9636219 C16.9552354,26.5032488 18.5978642,27.451775 20.3756,27.4519 C23.1237412,27.4520933 25.3517066,25.2244413 25.3518999,22.4763 C25.3520932,19.7281588 23.1244413,17.5001934 20.3763,17.5 L20.3763,17.5 Z" id="形状"></path>
            </g>
        </g>
    </g>
</svg>