<?xml version="1.0" encoding="UTF-8"?>
<svg width="42px" height="42px" viewBox="0 0 42 42" version="1.1" xmlns="http://www.w3.org/2000/svg" xmlns:xlink="http://www.w3.org/1999/xlink">
    <title>icon-jkza</title>
    <g id="页面-2" stroke="none" stroke-width="1" fill="none" fill-rule="evenodd">
        <g id="5-0-卫生保健管理" transform="translate(-76, -330)" fill="#287CFF" fill-rule="nonzero">
            <g id="档案" transform="translate(76, 330)">
                <path d="M33.1068217,2.8 C34.647402,2.7996109 35.9175842,4.01639957 35.9946131,5.56640011 L35.9975038,5.7120001 L35.9975038,17.3600001 C35.9956686,18.1415274 35.3816719,18.7821994 34.6064102,18.8115301 C33.8311486,18.8408608 33.1711785,18.2483872 33.1111577,17.4692001 L33.1068217,17.3600001 L33.1068217,5.7120001 L7.09068218,5.7120001 L7.09068218,36.288 L22.2667635,36.288 C23.0464017,36.2844852 23.6883023,36.904513 23.717555,37.6893556 C23.7468077,38.4741981 23.1528688,39.1409701 22.3751641,39.19636 L22.2667635,39.2 L7.09068218,39.2 C5.55038116,39.2 4.28062838,37.9833194 4.20361334,36.4336 L4.2,36.288 L4.2,5.7120001 C4.2,4.1603399 5.40777364,2.88122315 6.94614804,2.80364012 L7.09068218,2.8 L33.1068217,2.8 L33.1068217,2.8 Z" id="路径"></path>
                <path d="M25.8801162,8.62398523 C26.6597544,8.62048533 27.301655,9.24051311 27.3309077,10.0253557 C27.3601604,10.8101982 26.7662215,11.4769702 25.9885168,11.5323601 L25.8801162,11.5360116 L14.3173876,11.5360116 C13.5379056,11.5390966 12.8964031,10.9189685 12.867351,10.1342775 C12.8382989,9.34958663 13.4321643,8.68304362 14.2097097,8.62764009 L14.3181102,8.62398523 L25.8808389,8.62398523 L25.8801162,8.62398523 Z" id="路径"></path>
                <path d="M29.4934689,22.4072241 L29.3922951,22.3264161 C27.4880582,20.8281921 24.8669321,20.5406321 22.783473,21.765856 C19.3507879,23.782416 18.7871048,28.470736 21.5101275,31.2466 L27.9751381,37.833544 C28.3762078,38.2426182 28.9232297,38.4726655 29.4939813,38.4726655 C30.0647329,38.4726655 30.6116461,38.2420824 31.0125224,37.832816 L37.4768104,31.2466 C40.2005557,28.471464 39.63615,23.783144 36.2027423,21.7651281 C34.1207284,20.5406321 31.4988797,20.8281921 29.5939201,22.325688 L29.4934689,22.4072241 L29.4934689,22.4072241 Z M34.8802552,24.364088 C36.5481788,25.456088 36.7917187,27.8024321 35.4208127,29.199464 L29.4934689,35.238224 L23.5661251,29.199464 C22.1590856,27.7653041 22.4524899,25.3316 24.2403768,24.280368 C25.3778602,23.612064 26.9207618,23.874144 27.9440633,24.917368 L28.4665541,25.448808 C28.7380525,25.7253455 29.1080974,25.8809605 29.4941916,25.8809605 C29.8802859,25.8809605 30.2503307,25.7253455 30.5218291,25.448808 L31.0428746,24.917368 C32.0661761,23.874872 33.6098004,23.612064 34.7458384,24.280368 L34.8802552,24.364088 L34.8802552,24.364088 Z" id="形状"></path>
            </g>
        </g>
    </g>
</svg>