<?xml version="1.0" encoding="UTF-8"?>
<svg width="42px" height="42px" viewBox="0 0 42 42" version="1.1" xmlns="http://www.w3.org/2000/svg" xmlns:xlink="http://www.w3.org/1999/xlink">
    <title>icon-lstd</title>
    <g id="页面-2" stroke="none" stroke-width="1" fill="none" fill-rule="evenodd">
        <g id="5-0-卫生保健管理" transform="translate(-76, -482)" fill="#287CFF" fill-rule="nonzero">
            <g id="灵感" transform="translate(76, 482)">
                <path d="M26.8666667,28.3433489 C27.6347151,28.3431717 28.2728311,28.908165 28.3296667,29.6387016 L28.3333333,29.7429173 L28.3333333,31.8412209 C28.3333333,33.3319966 27.1077393,34.560923 25.5466667,34.6354618 L25.4,34.638959 L16.6,34.638959 C15.0369723,34.638959 13.7484847,33.4700189 13.6703333,31.9811078 L13.6666517,31.8412209 L13.6666517,29.7429173 C13.6631258,28.9883466 14.287696,28.3670847 15.0782886,28.3387725 C15.8688811,28.3104604 16.540538,28.8853028 16.5963333,29.6380022 L16.6,29.7429173 L16.6,31.8412209 L25.4,31.8412209 L25.4,29.7429173 C25.4,29.3719142 25.5545233,29.0161064 25.8295767,28.7537675 C26.1046301,28.4914287 26.4776825,28.3440483 26.8666667,28.3440483 L26.8666667,28.3433489 Z M24.6666667,36.4022334 C25.4539197,36.4040093 26.0992856,36.9982643 26.1288312,37.7485992 C26.1583768,38.4989341 25.5615624,39.1376842 24.7766667,39.1957749 L24.6666667,39.1999858 L17.3333333,39.1999858 C16.5421916,39.2033487 15.8908195,38.6076497 15.8611352,37.8536028 C15.8314509,37.0995559 16.4341536,36.4589468 17.2233333,36.4057306 L17.3333333,36.4022334 L24.6666667,36.4022334 L24.6666667,36.4022334 Z" id="形状"></path>
                <path d="M21,2.8 C29.5052,2.8 36.4,9.3760834 36.4,17.488125 C36.4,23.4612958 32.9386667,28.6678865 27.4533333,30.9536385 C26.7156648,31.2424972 25.8711815,30.9163022 25.5521361,30.2192712 C25.2330907,29.5222402 25.556397,28.709799 26.28,28.3902109 C30.68,26.5555942 33.4666667,22.3645825 33.4666667,17.488125 C33.4666667,10.9211343 27.8852667,5.59773811 21,5.59773811 C14.1147333,5.59773811 8.53333335,10.9211343 8.53333335,17.488125 C8.53333335,22.3645825 11.3192667,26.5555942 15.72,28.3902109 C16.443603,28.709799 16.7669093,29.5222402 16.4478639,30.2192712 C16.1288185,30.9163022 15.2843352,31.2424972 14.5466667,30.9536385 C9.06133335,28.6678865 5.6,23.4612958 5.6,17.488125 C5.6,9.3760834 12.4948,2.8 21,2.8 Z" id="路径"></path>
                <path d="M20.0554667,9.09770847 L20.2666667,9.09491072 L20.2666667,11.8926488 C17.4961333,11.8926488 15.2294,14.0000451 15.1362667,16.6208262 L15.1333333,16.7886905 C15.1368742,17.5432612 14.512304,18.1645231 13.7217114,18.1928353 C12.9311189,18.2211474 12.259462,17.646305 12.2036667,16.8936057 L12.2,16.7886905 C12.2,12.6130664 15.7031333,9.20472191 20.0554667,9.09770847 Z" id="路径"></path>
            </g>
        </g>
    </g>
</svg>