<?xml version="1.0" encoding="UTF-8"?>
<svg width="12px" height="12px" viewBox="0 0 12 12" version="1.1" xmlns="http://www.w3.org/2000/svg" xmlns:xlink="http://www.w3.org/1999/xlink">
    <title>icon-ych</title>
    <g id="页面-2" stroke="none" stroke-width="1" fill="none" fill-rule="evenodd">
        <g id="12-1-1-婴幼儿请假" transform="translate(-261, -669)">
            <g id="编组-2" transform="translate(12, 635)">
                <g id="编组" transform="translate(243, 28)">
                    <g id="icon/basic/jiaobiao/delete" transform="translate(6, 6)">
                        <circle id="椭圆形" fill="#C6C5CF" cx="6" cy="6" r="6"></circle>
                        <path d="M6.09375,2.25 C6.35263348,2.25 6.5625,2.45986652 6.5625,2.71875 L6.562,5.437 L9.28125,5.4375 C9.54013348,5.4375 9.75,5.64736652 9.75,5.90625 L9.75,6.09375 C9.75,6.35263348 9.54013348,6.5625 9.28125,6.5625 L6.562,6.562 L6.5625,9.28125 C6.5625,9.54013348 6.35263348,9.75 6.09375,9.75 L5.90625,9.75 C5.64736652,9.75 5.4375,9.54013348 5.4375,9.28125 L5.437,6.562 L2.71875,6.5625 C2.45986652,6.5625 2.25,6.35263348 2.25,6.09375 L2.25,5.90625 C2.25,5.64736652 2.45986652,5.4375 2.71875,5.4375 L5.437,5.437 L5.4375,2.71875 C5.4375,2.45986652 5.64736652,2.25 5.90625,2.25 L6.09375,2.25 Z" id="形状结合" fill="#FFFFFF" fill-rule="nonzero" transform="translate(6, 6) rotate(45) translate(-6, -6)"></path>
                    </g>
                </g>
            </g>
        </g>
    </g>
</svg>