<?xml version="1.0" encoding="UTF-8"?>
<svg width="14px" height="14px" viewBox="0 0 14 14" version="1.1" xmlns="http://www.w3.org/2000/svg" xmlns:xlink="http://www.w3.org/1999/xlink">
    <title>icon-bianji</title>
    <g id="页面-2" stroke="none" stroke-width="1" fill="none" fill-rule="evenodd">
        <g id="10-3-1-添加食谱" transform="translate(-275, -423)" fill="#287CFF">
            <g id="编组" transform="translate(265, 416)">
                <g id="icon/basic/bianji" transform="translate(10, 7)">
                    <rect id="矩形" fill-opacity="0" x="0" y="0" width="14" height="14"></rect>
                    <rect id="Rectangle-16" x="1.51111111" y="11.5" width="9.82222222" height="1.5" rx="0.75"></rect>
                    <path d="M4.51521938,0.72780213 L6.90043252,0.72780213 C7.30544134,0.72780213 7.63376585,1.05612665 7.63376585,1.46113546 L7.63376585,9.55565398 C7.63376585,9.72920895 7.57221153,9.89713908 7.46004913,10.0295812 L5.98763425,11.768219 C5.85676286,11.9227529 5.62539619,11.9419351 5.47086233,11.8110637 C5.4554232,11.7979886 5.44109272,11.7836581 5.42801765,11.768219 L3.95560278,10.0295812 C3.84344038,9.89713908 3.78188605,9.72920895 3.78188605,9.55565398 L3.78188605,1.46113546 C3.78188605,1.05612665 4.11021057,0.72780213 4.51521938,0.72780213 Z" id="Mask" transform="translate(5.7078, 6.3093) rotate(-315) translate(-5.7078, -6.3093)"></path>
                </g>
            </g>
        </g>
    </g>
</svg>