<?xml version="1.0" encoding="UTF-8"?>
<svg width="14px" height="14px" viewBox="0 0 14 14" version="1.1" xmlns="http://www.w3.org/2000/svg" xmlns:xlink="http://www.w3.org/1999/xlink">
    <title>icon_删除</title>
    <g id="页面-2" stroke="none" stroke-width="1" fill="none" fill-rule="evenodd">
        <g id="10-3-1-添加食谱" transform="translate(-324, -423)" fill="#287CFF">
            <g id="编组" transform="translate(265, 416)">
                <g id="Combined-Shape" transform="translate(59, 7)">
                    <path d="M7.53846154,1 C8.13322973,1 8.61538462,1.48215488 8.61538462,2.07692308 L8.615,2.083 L12.9230769,2.08333333 C13.5178451,2.08333333 14,2.56548822 14,3.16025641 L14,3.17307692 C14,3.76784512 13.5178451,4.25 12.9230769,4.25 L12.9230769,10.7692308 C12.9230769,12.5535353 11.4766123,14 9.69230769,14 L4.30769231,14 C2.52338773,14 1.07692308,12.5535353 1.07692308,10.7692308 L1.07692308,4.25 C0.482154885,4.25 2.94882701e-16,3.76784512 2.22044605e-16,3.17307692 L-2.22044605e-16,3.16025641 C-2.94882701e-16,2.56548822 0.482154885,2.08333333 1.07692308,2.08333333 L5.384,2.083 C5.38461538,1.48215488 5.86677027,1 6.46153846,1 L7.53846154,1 Z M5.11538462,5.33333333 C4.66930847,5.33333333 4.30769231,5.6949495 4.30769231,6.14102564 L4.30769231,9.94230769 C4.30769231,10.3883838 4.66930847,10.75 5.11538462,10.75 C5.56146076,10.75 5.92307692,10.3883838 5.92307692,9.94230769 L5.92307692,6.14102564 C5.92307692,5.6949495 5.56146076,5.33333333 5.11538462,5.33333333 Z M8.88720787,5.33333333 C8.44113173,5.33333333 8.07951557,5.6949495 8.07951557,6.14102564 L8.07951557,9.94230769 C8.07951557,10.3883838 8.44113173,10.75 8.88720787,10.75 C9.33328402,10.75 9.69490018,10.3883838 9.69490018,9.94230769 L9.69490018,6.14102564 C9.69490018,5.6949495 9.33328402,5.33333333 8.88720787,5.33333333 Z"></path>
                </g>
            </g>
        </g>
    </g>
</svg>